<?xml version="1.0" encoding="utf-8"?>
<!-- Generator: Adobe Illustrator 23.0.6, SVG Export Plug-In . SVG Version: 6.00 Build 0)  -->
<svg version="1.1" id="Ebene_1" xmlns="http://www.w3.org/2000/svg" xmlns:xlink="http://www.w3.org/1999/xlink" x="0px" y="0px"
	 viewBox="0 0 1789.08 1125.09" style="enable-background:new 0 0 1789.08 1125.09;" xml:space="preserve">
<style type="text/css">
	.st0{opacity:0.1;fill:#45AC34;}
	.st1{fill:#48A737;}
	.st2{fill:#30ACE3;}
	.st3{fill:#C3D332;}
	.st4{clip-path:url(#SVGID_3_);}
	.st5{clip-path:url(#SVGID_4_);}
	.st6{fill:none;stroke:#48A737;stroke-width:20;stroke-miterlimit:10;}
</style>
<g>
	<g>
		<defs>
			<rect id="SVGID_13_" x="-688.8" y="1092.03" width="389.61" height="740.51"/>
		</defs>
		<clipPath id="SVGID_3_">
			<use xlink:href="#SVGID_13_"  style="overflow:visible;"/>
		</clipPath>
		<g class="st4">
			<g>
				<path class="st1" d="M204.5,1600.33l-1.3-20.73c0-0.02-0.01-0.04-0.01-0.06c-0.01-0.08-0.02-0.15-0.03-0.22
					c-0.01-0.03-0.01-0.06-0.02-0.09c-0.02-0.1-0.05-0.2-0.08-0.3c0,0,0,0,0,0c-0.03-0.1-0.07-0.2-0.12-0.3
					c-0.01-0.02-0.02-0.04-0.03-0.06c-0.04-0.07-0.08-0.15-0.12-0.22c-0.02-0.03-0.03-0.05-0.05-0.08
					c-0.04-0.07-0.09-0.13-0.14-0.19c-0.02-0.02-0.03-0.04-0.05-0.06c-0.07-0.08-0.13-0.15-0.21-0.22
					c-0.02-0.02-0.03-0.03-0.05-0.04c-0.06-0.06-0.12-0.11-0.19-0.16c-0.03-0.02-0.05-0.04-0.08-0.06c-0.07-0.05-0.13-0.09-0.2-0.13
					c-0.01-0.01-0.03-0.02-0.04-0.03l-2.05-1.15v-3.14c0-0.07,0-0.14-0.01-0.21l-3.24-41.42l-3.67-70.14c0-0.08-0.01-0.16-0.02-0.24
					l-3.02-21.38c-0.17-1.19-1.09-2.14-2.28-2.33c-0.08-0.01-0.17-0.02-0.25-0.03l-1.12-14.31c-0.1-1.32-1.14-2.39-2.46-2.52
					c-1.32-0.14-2.55,0.69-2.93,1.96l-0.3,1.01l-18.31-109.3c-0.22-1.33-1.37-2.3-2.71-2.3c-0.01,0-0.02,0-0.02,0h0
					c-1.35,0.01-2.5,1.01-2.7,2.35l-16.96,113.53c-0.56-0.68-1.43-1.08-2.36-1c-1.39,0.12-2.47,1.25-2.52,2.64l-0.39,10.77
					c-0.47-0.97-1.49-1.6-2.61-1.54c-1.38,0.07-2.5,1.16-2.6,2.54l-4.75,62.19c-0.01,0.07-0.01,0.14-0.01,0.21v1.92l-0.45,3.06
					l-50.96-5.33v-2.83c0-0.04,0-0.07,0-0.11l-0.27-6.77l-0.68-31.4c-0.01-0.25-0.04-0.49-0.12-0.73l-0.62-2.06l0.14-0.69
					c0.08-0.4,0.07-0.82-0.03-1.22l-1.43-5.58l-1.05-20.97l0.79-2.37c0.36-1.09,0.01-2.25-0.82-2.96c0.4-0.65,0.52-1.45,0.3-2.21
					l-0.97-3.35l0.19-0.05l3.66,0.24c0.89,0.07,1.76-0.32,2.32-1.02c0.56-0.7,0.75-1.62,0.51-2.49l-0.82-2.86
					c-0.22-0.78-0.78-1.43-1.53-1.76l-2.7-1.2l-1.48-3.37c-0.14-0.33-0.35-0.62-0.6-0.87l-1.46-1.42v-20.04
					c0-0.14-0.01-0.28-0.03-0.42l-2.39-15.67v-3.79c0-0.9-0.44-1.74-1.17-2.25c-0.74-0.51-1.68-0.64-2.52-0.33l-2.67,0.97
					c-1.29,0.47-2.03,1.81-1.75,3.15l0.4,1.89l-0.64,6.47c-0.46-0.17-0.96-0.21-1.44-0.12l-1.39-5.65l-1.73-15.34l0.29-0.88
					c0.28-0.84,0.14-1.76-0.38-2.48c-0.3-0.41-0.7-0.73-1.15-0.92c-0.21-0.79-0.77-1.46-1.55-1.8c-1-0.44-2.16-0.25-2.96,0.48
					l-0.65,0.59l-0.41,0.04c-0.97,0.09-1.83,0.69-2.24,1.57c-0.42,0.88-0.33,1.92,0.22,2.73l0.85,1.23v1.17l-1.63,14.12l-3,7.28
					c-0.56,1.36,0.05,2.92,1.38,3.54l0.23,0.11v1.72l-10.4-3.04l-5.81-8.92l0.31-0.35c0.8-0.91,0.91-2.23,0.28-3.26l-0.65-1.06
					l-2.6-22.02l0.41-0.61c0.79-1.18,0.55-2.77-0.56-3.67l-3.15-2.54c-1.08-0.87-2.64-0.8-3.64,0.16l-3.03,2.91
					c-0.7,0.67-1,1.67-0.77,2.62c0.21,0.88,0.83,1.59,1.65,1.92l-0.7,6.82l-34.73-53.27l-0.01-0.01c0,0,0,0,0,0l-0.01-0.01
					c-0.02-0.03-0.05-0.06-0.07-0.1c-0.03-0.04-0.06-0.09-0.09-0.13c-0.03-0.03-0.05-0.06-0.08-0.09c-0.03-0.04-0.07-0.08-0.1-0.11
					c-0.03-0.03-0.06-0.06-0.09-0.09c-0.04-0.03-0.07-0.07-0.11-0.1c-0.03-0.03-0.07-0.05-0.1-0.08c-0.04-0.03-0.07-0.06-0.11-0.08
					c-0.04-0.03-0.08-0.05-0.12-0.07c-0.04-0.02-0.07-0.05-0.11-0.07c-0.04-0.02-0.08-0.04-0.12-0.06
					c-0.04-0.02-0.08-0.04-0.12-0.06c-0.04-0.02-0.08-0.03-0.13-0.05c-0.04-0.02-0.08-0.03-0.12-0.04
					c-0.04-0.01-0.08-0.02-0.13-0.03c-0.04-0.01-0.09-0.02-0.13-0.03c-0.04-0.01-0.08-0.01-0.12-0.02c-0.05-0.01-0.1-0.02-0.14-0.02
					c-0.03,0-0.07,0-0.1-0.01c-0.05,0-0.11-0.01-0.16-0.01c-0.03,0-0.06,0-0.09,0c-0.06,0-0.11,0-0.17,0
					c-0.03,0-0.05,0.01-0.08,0.01c-0.06,0.01-0.12,0.01-0.18,0.02c-0.02,0-0.05,0.01-0.07,0.02c-0.06,0.01-0.13,0.03-0.19,0.04
					c-0.02,0.01-0.04,0.02-0.07,0.02c-0.06,0.02-0.13,0.04-0.19,0.06c-0.03,0.01-0.06,0.03-0.09,0.04
					c-0.05,0.02-0.11,0.04-0.16,0.07c-0.08,0.04-0.16,0.09-0.24,0.14l-0.79,0.51l-5.94-1.05l-132.71-23.43l-1.58-5.5c0,0,0,0,0,0
					l-0.01-0.02l-1.09-3.68l0.36-1.14c0.17-0.54,0.17-1.12-0.01-1.66l-0.38-1.19c0.33-0.46,0.51-1.01,0.51-1.6v-2.67
					c0-1-0.54-1.91-1.41-2.4l-3.03-1.7c-0.54-0.3-1.16-0.41-1.77-0.32l-3.88,0.61c-0.86,0.13-1.61,0.67-2.01,1.44
					c-0.41,0.77-0.42,1.69-0.05,2.47l0.38,0.79l-1.19,0.96c-1.01,0.81-1.32,2.22-0.74,3.38l0.97,1.94c0.09,0.18,0.15,0.29,0.28,0.44
					c0.08,0.12,0.6,0.9,1,2.25c0.02,0.08,0.05,0.17,0.08,0.25c0.05,0.13,0.1,0.25,0.13,0.35c-0.01,0.01-0.01,0.02-0.01,0.03
					c-0.05,0.1-0.1,0.2-0.14,0.31c-0.01,0.02-0.01,0.03-0.02,0.05c-0.03,0.09-0.06,0.19-0.08,0.29l-2.45,10.62l-66.8,77.12
					l-7.13,0.4c0.56-0.66,0.79-1.57,0.55-2.46c0-0.01-0.21-0.85-0.27-2.12c-0.04-0.98-0.37-2.83-0.88-5.53
					c-0.24-1.3-0.57-3.08-0.61-3.54c-0.01-0.78-0.21-1.77-1.01-2.57c-0.27-0.51-0.68-0.95-1.19-1.27c-0.14-0.09-0.29-0.17-0.45-0.23
					c-0.02-0.08-0.03-0.15-0.05-0.23c-0.08-0.34-0.07-0.46-0.04-0.93c0.02-0.29,0.05-0.65,0.05-1.1c0-0.93,0-0.93,0.16-1.46
					c0.26-0.86,0.34-1.37,0.41-1.86c0.01-0.07,0.02-0.13,0.03-0.2c0.22-1.32-0.48-2.29-0.82-2.76c-0.01-0.01-0.01-0.02-0.02-0.03
					c-0.01-0.08-0.02-0.16-0.03-0.24c0.33-0.5,0.52-1.11,0.56-1.77c0.03-0.45-0.03-0.95-0.15-1.46c1.17-0.8,1.53-2.15,1.25-3.28
					c-0.3-1.18-1.25-2.07-2.42-2.41c-0.09-0.6-0.39-1.16-0.84-1.58l-1.13-1.06c-0.8-0.75-1.97-0.96-2.98-0.52
					c-1.01,0.44-1.66,1.43-1.66,2.53v0.55c-1.14,0.2-2.05,1.11-2.24,2.29l-0.14,0.92c-0.12,0.8,0.1,1.6,0.63,2.21
					c0,0.01,0.33,0.4,0.67,0.99c-0.14,0.56-0.23,1.33-0.03,2.27c-0.91,1.28-0.76,2.45-0.45,3.22c-0.05,0.16-0.09,0.32-0.11,0.48
					c0,0-0.06,0.44-0.19,1.06c-0.1,0.51-0.06,1.04,0.13,1.53c0.03,0.07,0.08,0.2-0.17,0.69c-0.81,1.31-0.84,2.8-0.47,4.02
					l-1.65,8.45l-1.85,4.11c-0.49,1.08-0.23,2.35,0.64,3.15l0.58,0.54l0.5,17.63l-2.52,6.1c-0.99-12.17-2.86-35.1-3.64-45.43
					c-1.14-15.03-7.86-30.32-18.44-41.95c-10.48-11.41-26.62-15.1-27.3-15.25c-0.24-0.05-0.49-0.08-0.73-0.06l-6.48,0.32l-2.6-0.1
					c-0.26-0.21-0.62-1.06-0.72-1.7c-0.05-0.35-0.17-0.69-0.34-1l-0.86-1.49l-0.09-3.37c-0.01-0.35-0.08-0.69-0.22-1.01l-0.44-1.02
					c0-3.92,0.05-9.51,0.16-11.82c0.43-0.73,0.68-1.6,0.87-2.4c0.05-0.21,0.07-0.42,0.07-0.63v-3.56l2.27-2.88
					c0.6-0.76,0.75-1.78,0.41-2.68l-0.7-1.84v-8.74c0-1.03-0.57-1.97-1.49-2.44l-2.16-1.12c-3.49-10.74-10.59-14.31-14.38-15.48
					c0.01-0.78-0.23-2.1-1.42-4.29l-0.93-8.36c-0.16-1.45-1.43-2.53-2.89-2.44c-1.46,0.08-2.6,1.29-2.6,2.75v7.37l-0.52,1.56
					c-0.73,1.18-1.36,2.73-0.95,4.17c-0.45,0.5-1.23,1.3-2.4,2.31c-5.31,3.59-10.35,15.74-11.51,18.66l-3.38,3.69
					c-0.45,0.49-0.71,1.13-0.72,1.8l-0.22,9.91c-0.02,1.1,0.61,2.11,1.61,2.57l0.02,0.01c0.09,0.22,0.19,0.45,0.31,0.7
					c0.32,0.63,0.86,1.12,1.52,1.36c-0.58,1.52-0.34,3.21,0.4,4.61c0.04,2.7,0.15,11.93,0.03,17.8c-2.61,1.82-6.81,5.45-8.79,7.18
					c-0.16,0.14-0.3,0.29-0.42,0.46c-0.02,0.03-1.1,1.51-2.89,3.57c-0.5,0.51-1,1.06-1.49,1.67c-1.92,2.09-4.36,4.47-7.03,6.5
					c-7.23,5.4-18.55,16.42-28.59,31.15c-0.01,0.01-0.01,0.02-0.02,0.03c-10.41,15.68-11.09,45.27-11.14,48.49l-10.47,57.53
					l-5.15,4.62l-24.3,2.85l-0.28-15.98l0.32-42.11l0.52-0.52c0.04-0.04,0.07-0.08,0.11-0.12c0.01-0.01,0.02-0.02,0.03-0.03
					c0,0,0-0.01,0.01-0.01c0.05-0.06,0.11-0.13,0.15-0.2c0.02-0.02,0.03-0.04,0.04-0.06c0.03-0.05,0.06-0.09,0.09-0.14
					c0.02-0.03,0.03-0.06,0.05-0.08c0.02-0.05,0.05-0.09,0.07-0.14c0.01-0.03,0.03-0.06,0.04-0.09c0.03-0.07,0.06-0.14,0.08-0.21
					c0.01-0.03,0.02-0.06,0.03-0.09c0.01-0.05,0.03-0.1,0.04-0.14c0.01-0.03,0.01-0.07,0.02-0.1c0.01-0.05,0.02-0.1,0.02-0.15
					c0-0.03,0.01-0.06,0.01-0.09c0.01-0.07,0.01-0.14,0.01-0.2c0-0.01,0-0.02,0-0.03c0-0.08,0-0.16-0.01-0.24
					c0-0.02,0-0.04-0.01-0.06c-0.01-0.06-0.01-0.12-0.02-0.18c0-0.03-0.01-0.05-0.01-0.08c-0.01-0.05-0.02-0.11-0.04-0.16
					c-0.01-0.03-0.01-0.05-0.02-0.08c-0.02-0.06-0.04-0.12-0.06-0.17c-0.01-0.03-0.02-0.07-0.04-0.1c-0.02-0.05-0.04-0.11-0.07-0.16
					l-0.01-0.03c0-0.01,0-0.01-0.01-0.02l-0.61-1.29l-0.42-26.08l1.62-2.1c0.55-0.71,0.71-1.65,0.44-2.51l-3.35-10.58l-9.11-63.42
					c-0.19-1.35-1.35-2.36-2.72-2.36c0,0-0.01,0-0.01,0c-1.36,0-2.52,1-2.72,2.35l-4.61,30.88l-3.01-13.76l0.43-0.5
					c0.55-0.64,0.77-1.49,0.61-2.31c-0.16-0.82-0.69-1.53-1.43-1.92l-1.27-0.66l-6.2-45.83l-17.51-125.52
					c-0.19-1.36-1.35-2.37-2.73-2.37c0,0,0,0,0,0c-1.37,0-2.54,1.02-2.72,2.38l-26.99,198.57l-9.29-57.93
					c-0.21-1.34-1.37-2.32-2.72-2.32c-0.01,0-0.01,0-0.02,0c-1.36,0.01-2.51,1.01-2.71,2.35l-9.1,61.76l-3.92,12.08l-0.42,0.76
					c-0.46,0.83-0.45,1.83-0.02,2.63c-0.56,0.67-0.8,1.59-0.56,2.49c0.36,1.34,1.65,2.17,2.98,2.01l-0.94,25.97l-0.25,0.17
					c0,0-0.01,0-0.01,0.01l-0.04,0.03c-0.01,0.01-0.02,0.02-0.04,0.03c-0.07,0.05-0.13,0.1-0.19,0.15
					c-0.02,0.02-0.05,0.04-0.07,0.06c-0.05,0.05-0.1,0.1-0.15,0.15c-0.02,0.02-0.05,0.05-0.07,0.07c-0.05,0.05-0.09,0.11-0.13,0.17
					c-0.02,0.02-0.03,0.04-0.05,0.07c-0.06,0.08-0.11,0.16-0.16,0.25c-0.01,0.01-0.01,0.02-0.02,0.03
					c-0.04,0.08-0.08,0.16-0.11,0.24c-0.01,0.03-0.02,0.05-0.03,0.08c-0.03,0.07-0.05,0.14-0.07,0.21
					c-0.01,0.03-0.02,0.06-0.02,0.09c-0.02,0.07-0.03,0.15-0.05,0.22c0,0.03-0.01,0.05-0.01,0.08c-0.01,0.08-0.02,0.17-0.02,0.26
					c0,0.01,0,0.03,0,0.04c0,0,0,0.01,0,0.01c0,0.1,0,0.21,0.01,0.31c0,0.01,0,0.03,0.01,0.04c0.01,0.08,0.02,0.15,0.03,0.23
					c0,0.01,0,0.02,0.01,0.03c0.01,0.03,0.02,0.07,0.02,0.1c0.02,0.07,0.03,0.13,0.05,0.19c0.01,0.03,0.02,0.06,0.03,0.1
					c0.02,0.07,0.05,0.13,0.08,0.19c0.01,0.03,0.03,0.06,0.04,0.09c0.03,0.07,0.07,0.13,0.1,0.19c0.01,0.02,0.03,0.05,0.04,0.07
					c0.04,0.07,0.09,0.13,0.14,0.2c0.01,0.02,0.02,0.03,0.03,0.05c0.06,0.08,0.13,0.15,0.2,0.22c0.02,0.02,0.03,0.03,0.05,0.04
					c0.06,0.05,0.11,0.1,0.17,0.15c0.01,0.01,0.02,0.02,0.03,0.03l1.48,1.16v70.68l-0.59,1.18c-0.02,0.04-0.04,0.08-0.06,0.13
					l-0.4,0.92l-19.57,11.11c-0.83,0.47-1.36,1.34-1.39,2.29c-0.03,0.95,0.43,1.86,1.22,2.39l0.66,0.44
					c0.09,0.06,0.19,0.12,0.3,0.17c0.36,0.18,1.03,0.46,1.67,0.72v1.89c0,1.56,0.33,2.65,0.77,3.4v7.06
					c-0.79,1.26-0.95,2.71-0.99,3.24c0,0.06-0.01,0.11-0.01,0.17v6.57c-0.04,0.24-0.32,0.81-0.58,1.18l-0.63,0.85
					c-0.63,0.83-0.73,1.95-0.26,2.88c0.32,0.64,0.88,1.12,1.53,1.36c0.2,0.23,0.48,0.66,0.61,1.08c0.15,0.48,0.42,0.9,0.77,1.22
					c0.15,0.47,0.42,0.89,0.79,1.23l0.19,0.17c0.02,5,0.08,23.92,0.02,29.88c-0.07,0.07-0.14,0.15-0.21,0.23
					c-0.77,0.89-1.13,2.09-1.3,3.23h-1.82c-1.08,0-2.07,0.64-2.51,1.62c-0.35,0.78-0.31,1.66,0.07,2.39
					c-0.43,0.83-0.41,1.83,0.06,2.65c0.49,0.85,1.4,1.37,2.38,1.37h0.11c0.17,0.59,0.54,1.11,1.06,1.48l0.82,0.58l0.32,3.99
					c-2.64,1.74-8.65,6.08-17.73,14.74c-7.17,6.69-11.92,16.84-13.76,29.37c-0.99,6.71-0.9,12.39-0.76,15.16l-3.47,2
					c-0.74,0.43-1.24,1.18-1.35,2.02c-0.11,0.85,0.18,1.7,0.78,2.31l0.75,0.75l-0.38,4.57l-8.83,1.24
					c-1.15,0.16-2.08,1.03-2.31,2.17l-0.99,4.84c-0.19,0.91,0.1,1.85,0.76,2.51l10.46,10.36c0,0,0,0,0.01,0.01
					c-1.33,0.97-1.89,2.18-2.12,3.14c-0.67,2.8,1.01,5.64,2.18,7.19c-0.13,2,0.43,4.71,2.91,6.65c0.15,5.24,2.44,9.22,3.59,10.9
					v89.1c0,1.52,1.23,2.75,2.75,2.75c1.52,0,2.75-1.23,2.75-2.75v-90c0-0.64-0.23-1.27-0.64-1.76c-0.03-0.04-3.26-4.07-2.94-9.57
					c0.06-1.1-0.53-2.13-1.52-2.62c-1.57-0.78-1.53-2.02-1.36-2.71c0.32-0.94,0.06-1.89-0.61-2.63c-1.04-1.14-1.81-2.68-1.77-3.21
					c0.07-0.06,0.23-0.16,0.53-0.28c0.33-0.12,0.63-0.3,0.89-0.54c1.03-0.93,1.71-1.96,2.16-2.86h29.34c0.05,0,0.1,0,0.15,0
					l1.87-0.1v130.53c0,1.52,1.23,2.75,2.75,2.75c1.52,0,2.75-1.23,2.75-2.75v-130.83l56.16-3.09v157c0,1.52,1.23,2.75,2.75,2.75
					c1.52,0,2.75-1.23,2.75-2.75v-157.3l36.36-2v113.71c0,1.52,1.23,2.75,2.75,2.75c1.52,0,2.75-1.23,2.75-2.75v-114.01l0.34-0.02
					c0.76-0.04,1.47-0.4,1.96-0.99l3.06-3.67c0.41-0.49,0.64-1.12,0.64-1.76v-5.2c0-1.11-0.66-2.11-1.68-2.54l-4.21-1.77l-1-20.71
					c7.78,0.09,30,0.34,53.72,0.37l0.23,0c0.01,0,0.02,0,0.04,0c0.01,0,0.02,0,0.02,0l0.29,0c14.98,0.02,30.52-0.05,43.37-0.3v80.56
					c-1.09,0.86-1.43,1.89-1.53,2.54c-0.28,1.75,0.66,3.21,1.53,4.14V1777c0,1.52,1.23,2.75,2.75,2.75c1.52,0,2.75-1.23,2.75-2.75
					v-102.33c0-0.73-0.28-1.42-0.79-1.93c0.49-0.5,0.79-1.19,0.79-1.93v-82.44c1.09-0.39,1.86-1.44,1.83-2.66
					c-0.03-1.17-0.79-2.15-1.83-2.52v-37.17v-0.12l5.33-0.83l2.95,0.11l4.95,1.25c0.28,0.07,0.56,0.1,0.85,0.08l29.86-1.87
					c-0.28,0.46-0.43,1.01-0.4,1.59c0.08,1.49,1.34,2.64,2.82,2.6l16.69-0.46c1.52-0.04,2.72-1.31,2.67-2.83
					c-0.04-1.52-1.31-2.72-2.83-2.67l-6.55,0.18l-4.72-3.7c-0.28-0.22-0.6-0.38-0.93-0.48l7.81-2.47l109.07,1.61l2.87,1.74
					c0.1,0.06,0.2,0.11,0.3,0.15l-7.91-0.31c-1.52-0.06-2.8,1.12-2.86,2.64c-0.06,1.52,1.12,2.8,2.64,2.86l28.66,1.12
					c0.11,0,0.22,0,0.33-0.01l25.84-2.1c0.5,0.55,1.21,0.88,1.98,0.9l59.28,1.2l13.72,2.99l7.93,5.46c0.46,0.32,1,0.49,1.56,0.49
					h6.99v125.13c0,1.52,1.23,2.75,2.75,2.75s2.75-1.23,2.75-2.75v-127.88c0-0.58-0.18-1.12-0.49-1.56l0,0c0,0,0.03,0.04,0.08,0.12
					c-0.01-0.02-1-1.87-1-7.24c0-6.62,1.17-16.32,1.38-17.84c0.3-2.09-0.78-3.47-1.42-4.3c-0.48-0.61-0.53-0.72-0.53-0.93
					c0-1.32,0.5-2.66,0.93-3.85c0.17-0.45,0.33-0.88,0.46-1.31c0.39-1.24,0.25-2.46-0.38-3.45c-0.12-0.19-0.26-0.37-0.4-0.52
					c0.24-2.9,0.63-7.63,0.63-8.43c0-0.64-0.17-1.24-0.34-1.87c-0.12-0.44-0.37-1.32-0.32-1.68c2.08-2.57,1.68-4.72,1.36-6.45
					c-0.03-0.18,0.01-0.36,0.2-0.95c0.22-0.7,0.53-1.66,0.53-2.91c0-2.39-1.48-3.31-2.11-3.6c-0.28-0.13-0.56-0.2-0.84-0.25
					c-0.64-4.51-1.83-13.58-2.61-23.93c-0.09-4.4-0.34-9.84-0.75-16.29c0.6-10.51,5.17-19.85,13.59-27.76
					c4.79-4.51,9.56-7.27,11.7-8.39c2.01,1.16,6.42,4.04,10.78,9.03c7.82,8.96,11.78,20.17,11.78,33.31c0,0.02,0,0.05,0,0.07
					c0.98,36.4,0.99,62.81,0.99,63.07v116.69c0,0.49,0.13,0.98,0.38,1.4l4.01,6.77c0.03,0.05,0.07,0.11,0.1,0.16l7.78,11.29
					c0.52,0.76,1.38,1.19,2.27,1.19c0.27,0,0.55-0.04,0.82-0.12c1.15-0.36,1.93-1.42,1.93-2.63v-151.75c0-0.04,0-0.09,0-0.13
					c-0.02-0.43-2.01-42.89-2.76-66.24c-0.33-10.42-6.33-21.26-17.35-31.35c-2.75-2.51-5.47-4.68-7.89-6.46l18.57,2.48
					c0.97,0.13,1.94-0.27,2.54-1.04l1.41-1.81l27.53,1.5c-0.04,0.19-0.06,0.38-0.05,0.58l2.37,129.43
					c-0.92-32.92-1.82-69.68-1.68-84.13c0.29-30.96-16.54-33.95-17.25-34.06l-0.85,5.44l-0.04-0.01c0.13,0.02,3.18,0.63,6.27,4.26
					c5.39,6.36,6.44,16.73,6.37,24.32c-0.27,28.66,3.49,144.33,3.53,145.49c0.05,1.49,1.27,2.66,2.75,2.66c0.03,0,0.06,0,0.09,0
					c0.79-0.03,1.49-0.38,1.97-0.93l0.78,42.6c0.02,1.05,0.63,2,1.58,2.44c0.37,0.17,0.77,0.26,1.17,0.26c0.61,0,1.22-0.21,1.72-0.6
					l8.63-6.9c0.66-0.53,1.04-1.33,1.03-2.17l-1.73-215.08c-0.01-1.51-1.24-2.73-2.75-2.73c-0.01,0-0.02,0-0.02,0
					c-1.52,0.01-2.74,1.25-2.73,2.77l1.71,213.75l-3.21,2.57l-4.21-229.47c-0.01-0.72-0.3-1.37-0.76-1.85l0.15-0.09l6.81,0.98
					c-0.28,0.7-0.26,1.49,0.06,2.17c0.35,0.74,1.01,1.3,1.8,1.5l18.08,4.71c0.41,0.11,0.84,0.12,1.26,0.03l5-1.04l0.39,0.25
					c-0.21,0.28-0.37,0.6-0.46,0.94c-0.26,0.95,0.02,1.96,0.71,2.66l3.82,3.82c0.06,0.06,0.13,0.12,0.2,0.18l7.13,5.86
					c0.5,0.41,1.13,0.62,1.77,0.63l1.67-0.01c-0.32,0.23-0.59,0.52-0.79,0.86c-0.38,0.65-0.47,1.43-0.27,2.15l1.24,4.3l-0.11,0.08
					c-0.69,0.52-1.1,1.34-1.1,2.2v1.5c0,1.04,0.58,1.97,1.48,2.44l-0.12,0.36c-0.11,0.32-0.15,0.67-0.14,1.01l1.09,21.76
					c0.01,0.18,0.04,0.37,0.08,0.54l1.34,5.24l-0.15,0.75c-0.09,0.44-0.07,0.9,0.06,1.33l0.71,2.36l0.67,31.05c0,0.02,0,0.03,0,0.05
					l0.27,6.74v5.25c0,0,0,0,0,0c0,0,0,0,0,0v61.19v14.45v18.2c0,1.52,1.23,2.75,2.75,2.75c1.52,0,2.75-1.23,2.75-2.75v-11.18
					l23.37,25.23c0.52,0.57,1.26,0.88,2.02,0.88c0.12,0,0.25-0.01,0.37-0.02l64.58-8.71c1.07-0.14,1.96-0.9,2.27-1.94
					c0.31-1.03-0.01-2.16-0.83-2.87l-21.04-18.36l16.22,0.8c0.05,0,0.09,0,0.14,0c0.02,0,0.04,0,0.06,0l11.18-0.23l0.48,17.84
					c0.04,1.49,1.26,2.68,2.75,2.68c0.03,0,0.05,0,0.08,0c1.52-0.04,2.72-1.31,2.68-2.83l-0.48-17.81l20.94-0.43l1.13,18.01v21.12
					c0,1.52,1.23,2.75,2.75,2.75s2.75-1.23,2.75-2.75v-21.21C204.51,1600.44,204.51,1600.38,204.5,1600.33z M159.59,1332.21
					l16.26,97.02l0.92,5.5l-0.89,0.8c-0.32-0.16-0.68-0.26-1.05-0.28l-1.28-0.08l-3.29-4.68c-0.58-0.83-1.57-1.27-2.58-1.15
					c-1,0.12-1.86,0.78-2.24,1.72l-1.73,4.38l-1.32-3.29c-0.51-1.27-1.87-1.97-3.2-1.65l-14.02,3.38l-0.59-1.16L159.59,1332.21z
					 M133.12,1463.02l0.5,2.8c0.25,1.38,1.5,2.36,2.9,2.26c1.4-0.1,2.5-1.24,2.56-2.65l1.03-28.38l0.4-0.2l0.72,1.44
					c0.57,1.14,1.86,1.74,3.1,1.44l13.83-3.34l1.98,4.96c0.42,1.05,1.43,1.73,2.56,1.73h2.03c1.13,0,2.14-0.69,2.56-1.74l1.39-3.52
					l1.12,1.59c0.48,0.69,1.25,1.11,2.09,1.17l0.03,0c0.09,0.98,0.71,1.85,1.62,2.26c0.36,0.16,0.74,0.24,1.12,0.24
					c0.67,0,1.33-0.24,1.84-0.71l5.07-4.58c0.02-0.02,0.04-0.04,0.05-0.06c0.04-0.04,0.09-0.08,0.13-0.13l0.19,2.46
					c0.03,0.39,0.14,0.76,0.33,1.1l1.3,2.38c0.31,0.57,0.8,1,1.38,1.23l2.39,16.93l2.1,40.09l-14.83-4.88l-0.67-25.01
					c-0.04-1.52-1.3-2.72-2.83-2.68c-1.52,0.04-2.72,1.31-2.68,2.83l0.65,24.09l-38.98,6.27L133.12,1463.02z M123.54,1514.01
					l-1.35,32.37l-49.1-1.91v-35.73L123.54,1514.01z M-175.34,1270.81l2.43,0.35l0.16,0.56l-1.05-0.32
					c-0.55-0.17-1.12-0.16-1.65,0.02L-175.34,1270.81z M-185.37,1289.42l-0.13,0.55c-0.03-0.09-0.07-0.18-0.12-0.26L-185.37,1289.42
					z M-190.83,1295.85v55.91l-0.83-0.04c-0.03,0-0.06,0-0.09,0l-29.36-0.48c-0.13,0-0.25,0-0.38,0.02l-18.31,2.24L-190.83,1295.85z
					 M-185.33,1304.65c1.24-0.04,2.31-0.91,2.59-2.13l5.12-22.22l3.67-3.2l3,0.92l4.86,17.74c0.21,0.78,0.76,1.43,1.49,1.77
					c0.73,0.34,1.58,0.34,2.31,0l0.56-0.26l0.72,1.08v14.04c0,1.12,0.68,2.13,1.72,2.55l3.09,1.25l0.74,37.34l-0.86-0.12
					c-0.08-0.01-0.17-0.02-0.26-0.02l-28.76-1.37V1304.65z M-150.73,1314.28c-0.02-1.1-0.7-2.08-1.72-2.5l-3.05-1.24v-13.02
					c0-0.54-0.16-1.07-0.46-1.53l-2.49-3.74c-0.7-1.05-2.02-1.48-3.19-1.08l-3.25-11.89l137.12,24.21c0.11,0.02,0.22,0.03,0.33,0.04
					c0,0,0.01,0,0.01,0c0.11,0.01,0.22,0.01,0.32,0c0.02,0,0.03,0,0.05-0.01c0.09-0.01,0.19-0.02,0.28-0.04
					c0.03-0.01,0.06-0.02,0.09-0.02c0.07-0.02,0.14-0.03,0.21-0.05l36.73,57.02c0.27,0.43,0.65,0.76,1.09,0.97l6.29,9.65
					c0.07,0.32,0.2,0.64,0.4,0.93l3.83,5.71l-8.28-1.81c-0.12-0.03-0.25-0.05-0.38-0.06l-24.97-1.9l-138.17-19.61L-150.73,1314.28z
					 M16.1,1358.18c0.17-0.31,0.27-0.65,0.31-1.01l0.4-3.92l0.93,7.87l-1.76-2.7L16.1,1358.18z M-174.9,1260.62l0.53,1.65
					l-0.35,1.11c-0.11,0.34-0.15,0.7-0.12,1.05c-0.03-0.09-0.07-0.19-0.11-0.28c-0.33-1.11-0.73-1.99-1.07-2.64
					C-175.56,1261.31-175.18,1261.01-174.9,1260.62z M-266.97,1374.84c0.15-0.36,0.22-0.74,0.21-1.13l-0.55-19.38
					c-0.02-0.73-0.33-1.42-0.86-1.92l1.17-2.6c0.09-0.19,0.15-0.39,0.19-0.6l1.57-8.04c0.26,0.52,0.66,1.02,1.33,1.36
					c0.23,0.12,0.47,0.21,0.71,0.26c0.11,0.72,0.3,1.75,0.59,3.34c0.3,1.63,0.76,4.1,0.79,4.77c0.02,0.4,0.05,0.78,0.08,1.12
					c-1.1,0.8-2.07,1.95-2.07,3.51c0,1.35,0.43,3.06,0.51,3.39c0.33,1.27,1.51,2.12,2.82,2.05l5.99-0.34l-7.17,8.27
					c-1,1.15-0.87,2.89,0.28,3.88c1.15,1,2.89,0.87,3.88-0.28l10.66-12.31l0.25-0.01c0.72-0.04,1.38-0.36,1.87-0.89
					c0.42,0.17,0.89,0.25,1.38,0.19l22.34-2.74l29.12,0.47l1.04,0.05v11.45c0,1.52,1.23,2.75,2.75,2.75s2.75-1.23,2.75-2.75v-11.18
					l28.37,1.35l1.62,0.23l0.15,7.77c0.02,1.06,0.65,2.01,1.61,2.45l1.67,0.76l-1.81,4.1l-32.93-2.69c-0.1-0.01-0.2-0.01-0.3-0.01
					c-2.34,0.06-57.61,1.6-73.49,6.75c-4.31,1.4-8.21,4.42-11.68,9.03L-266.97,1374.84z M-90.94,1489c0,0.06-0.01,0.12-0.01,0.18
					l-1.2,0.9c-0.69,0.52-1.1,1.34-1.1,2.2v3.85c-0.96,0.43-1.61,1.4-1.61,2.51v18.98l-1,1c-0.52,0.52-0.81,1.22-0.81,1.95v4.34
					l-3.32-0.75v-6.53c0-0.13-0.01-0.26-0.03-0.39l-3.99-27.62c-0.21-1.42-1.47-2.45-2.91-2.35l-1.42,0.09
					c-1.42,0.09-2.53,1.25-2.57,2.68l-0.64,25.28l-0.2,0.28c-7.05-13.38-29.44-56.41-32.49-69.53l-0.45-12.23
					c-0.05-1.36-1.09-2.48-2.44-2.63c-0.79-0.09-1.54,0.16-2.11,0.65c1.61-8.94,5.52-16.87,11.7-23.69
					c5.1-5.62,10.37-8.85,12.61-10.07c2.19,1.24,6.02,4.23,9.79,9.56c9.46,13.37,12.72,32.49,13.79,46.22l0.48,48.34
					c0.02,1.51,1.24,2.73,2.75,2.72c0.01,0,0.02,0,0.03,0c1.52-0.02,2.74-1.26,2.72-2.78l-0.48-48.43c0-0.06,0-0.12-0.01-0.18
					c-3.96-51.27-27.14-60.71-28.12-61.09c-0.69-0.26-1.45-0.24-2.12,0.06c-0.32,0.15-7.91,3.65-15.34,11.77
					c-4.42,4.84-9.32,11.97-12.04,21.64c0.19-2.26,0.51-4.64,1.01-7.07c3.45-16.74,13.51-28.18,29.88-34.02
					c11.21,5.72,19.19,16.44,24.39,32.74c4.25,13.35,6.62,29.96,7.67,53.83L-90.94,1489z M-217.68,1485.64l0.88-1.47
					c0.68-1.13,0.46-2.59-0.53-3.47l-0.44-0.39v-0.74c0-1.4-1.05-2.58-2.45-2.74l-1.37-0.15c-1.45-0.16-2.77,0.83-3.02,2.27
					l-0.76,4.4c-0.03,0.15-0.04,0.31-0.04,0.47v5.25c-0.5-0.72-1.33-1.18-2.26-1.18h-0.22l-2.05-22.24
					c-0.13-1.45-1.36-2.54-2.82-2.5c-1.45,0.04-2.62,1.2-2.67,2.65l-0.82,22.82l-0.66,0.03c-1.51,0.07-2.68,1.35-2.62,2.87
					l0.48,11.14l-6.9-16.92c0.8-0.61,1.24-1.63,1.05-2.69c-0.09-0.47-8.39-46.97,8.27-68.25c10.67-13.63,14.93-18.27,16.52-19.81
					c5.09,2.59,24.19,15.12,27.55,58.47l-24.61,36.31L-217.68,1485.64z M-187.62,1435.84l-0.82,5.47
					c-1.17-7.34-2.88-14.11-5.11-20.2c-2.81-7.66-6.45-14.3-10.82-19.73c-7.07-8.79-13.83-11.65-15.01-12.1
					c-0.29-0.12-0.61-0.2-0.93-0.22c-1.44-0.09-2.51,0.67-5.44,3.85c-3.29,3.57-8.41,9.8-15.21,18.49
					c-7.69,9.83-11.59,25.09-11.59,45.36c0,5.26,0.27,10.15,0.62,14.3l-7.79-19.09c-0.44-1.07-1.5-1.76-2.66-1.71l-15.62,0.61
					c0.39-4.07,1.43-11.87,4.06-20.71c3.49-11.71,10.59-27.72,24.61-37.44c12.34-8.56,24.54-11.87,36.25-9.83
					c11.76,2.05,20.44,9.01,25.65,14.49c1.05,1.1,2.79,1.15,3.89,0.1c1.1-1.05,1.15-2.79,0.1-3.89
					c-5.41-5.69-14.23-12.83-26.19-15.62c11.86-0.64,21.38-0.92,22.68-0.96l32.21,2.63v25.38c0,0.55,0.16,1.06,0.44,1.49
					c-1.73,3.93-2.87,7.83-3.6,11.41c-2.12,10.44-1.24,19.78-0.59,24.16l-22.64,2.04l-1.05-8.24c-0.17-1.36-1.33-2.39-2.7-2.4
					C-186.24,1433.47-187.42,1434.48-187.62,1435.84z M-149.23,1397.64v-17.54l19.73,1.61
					C-138.53,1385.86-144.83,1391.53-149.23,1397.64z M-274.17,1390.2c0.03-0.01,0.05-0.03,0.08-0.04
					c-0.03,0.04-0.06,0.09-0.08,0.13L-274.17,1390.2z M-300.95,1295.71c9.77,10.73,15.97,24.82,17.02,38.65
					c1.06,13.97,4.09,50.86,4.29,53.29l-0.07,6.46l-0.58,2.22l-21.76-56.65c0,0,0-0.01,0-0.01l-0.01-0.03
					c-0.03-0.07-0.06-0.14-0.09-0.21c-0.01-0.02-0.02-0.03-0.03-0.05c-0.03-0.06-0.06-0.12-0.1-0.18c-0.01-0.01-0.01-0.02-0.02-0.03
					c-0.01-0.01-0.01-0.02-0.02-0.03c-0.04-0.06-0.08-0.12-0.13-0.18c-0.01-0.01-0.01-0.02-0.02-0.03c-0.05-0.06-0.1-0.12-0.16-0.18
					c-0.02-0.02-0.04-0.04-0.06-0.06c-0.04-0.04-0.08-0.07-0.12-0.11c-0.02-0.02-0.05-0.04-0.07-0.06
					c-0.04-0.04-0.09-0.07-0.14-0.11c-0.02-0.02-0.05-0.03-0.07-0.05c-0.06-0.04-0.12-0.08-0.17-0.11
					c-0.02-0.01-0.05-0.03-0.07-0.04c-0.05-0.03-0.1-0.05-0.15-0.07c-0.02-0.01-0.05-0.02-0.07-0.03c-0.07-0.03-0.13-0.05-0.2-0.08
					c-0.01,0-0.01-0.01-0.02-0.01c-0.08-0.03-0.16-0.05-0.24-0.07c-0.02,0-0.03-0.01-0.05-0.01c-0.06-0.01-0.13-0.03-0.19-0.03
					c-0.02,0-0.05-0.01-0.07-0.01c-0.06-0.01-0.12-0.01-0.18-0.02c-0.02,0-0.05,0-0.07,0c-0.01,0-0.02,0-0.03,0
					c-0.16,0-0.32,0.01-0.48,0.03c0,0,0,0,0,0c-0.39,0.06-0.76,0.21-1.08,0.42c-1.61,1-3.46,2.09-4.97,2.93
					c-0.91-21.61-4.68-38.51-11.21-50.27c-2.2-3.96-4.38-6.72-6.23-8.62l3.52-0.18C-322.76,1282.77-309.48,1286.42-300.95,1295.71z
					 M-356.02,1282.37l10.18-5.58c0.27,0.05,0.85,0.26,1.64,1.04c2.12,2.11,5.98,8.59,7.99,28.36c2.22,21.77,1.62,53.61-1.79,94.68
					l-26.15-45.67c0.24-0.39,0.38-0.85,0.39-1.34C-363.35,1337.24-361.2,1292.77-356.02,1282.37z M-334.75,1284.25
					c1.51,1.12,4.5,3.82,7.61,9.41c8.08,14.56,10.25,36.13,10.65,51.66c0,0.13,0.02,0.26,0.04,0.38c0.16,0.95,0.78,1.75,1.65,2.15
					c0.4,0.18,0.79,0.28,1.23,0.28c0.78,0,1.73-0.31,3.19-1.03l-21.89,51.38C-326.94,1332.32-329.69,1299.72-334.75,1284.25z
					 M-373.47,1242.1l3.03-3.31c0.23-0.25,0.42-0.55,0.54-0.87c2.05-5.34,6.51-14.57,9.71-16.61c0.11-0.07,0.22-0.15,0.32-0.24
					c1.79-1.54,2.87-2.72,3.41-3.35c0.44,0.51,1.07,0.85,1.8,0.92c0.37,0.04,9.01,1.13,12.47,13.21c0.21,0.73,0.71,1.34,1.38,1.69
					l1.71,0.88v7.57c0,0.33,0.06,0.67,0.18,0.98l0.33,0.85l-1.9,2.41c-0.38,0.49-0.59,1.09-0.59,1.7v4.16
					c-0.05,0.16-0.1,0.33-0.14,0.46c-0.4,0.43-0.66,0.99-0.72,1.6c-0.23,2.27-0.23,12.54-0.23,13.71c0,0.37,0.08,0.74,0.22,1.08
					l0.45,1.06l0.08,2.94c-3.08-2.35-5.66-1.62-6.16-1.45c-0.14,0.05-0.28,0.11-0.42,0.18l-10.68,5.86l-11.08-0.7
					c0.11-7-0.05-17.13-0.06-17.61c-0.01-0.62-0.16-1.13-0.55-1.6c-0.04-0.06-0.08-0.13-0.11-0.2c0.65-0.68,0.9-1.66,0.66-2.58
					c-0.04-0.16-0.08-0.31-0.11-0.44c-0.42-1.71-0.99-2.83-2.63-3.62c-0.16-0.64-0.55-1.2-1.09-1.58L-373.47,1242.1z
					 M-371.91,1282.23l9.79,0.62c-2.32,6.94-4.14,19.61-5.52,38.42c-0.72,9.84-1.15,19.26-1.38,25.39l-4.23-7.39
					c-0.51-0.89-1.46-1.42-2.48-1.38c-1.02,0.03-1.94,0.63-2.38,1.55l-30.43,62.78c0.95-10.37,2.5-25.13,4.76-40.51
					c6.35-43.11,13.6-60.44,18.99-67.22c2.38-2.58,4.03-4.73,4.58-5.47C-377.12,1286.31-373.41,1283.25-371.91,1282.23z
					 M-425.61,1365.01l14.22,1.72c0.11,0.01,0.22,0.02,0.33,0.02c0.35,0,0.69-0.07,1.01-0.19c-1.88,13.65-3.2,26.44-4.04,35.65
					L-425.61,1365.01z M-449.75,1444.46c0.01,0,0.02,0,0.03-0.01c0.07-0.01,0.14-0.02,0.21-0.04c0.03-0.01,0.06-0.01,0.09-0.02
					c0.05-0.01,0.1-0.03,0.15-0.04c0.03-0.01,0.06-0.02,0.09-0.03c0.05-0.02,0.1-0.04,0.16-0.06c0.04-0.02,0.08-0.03,0.11-0.05
					c0.05-0.03,0.11-0.05,0.16-0.08c0.03-0.02,0.06-0.04,0.09-0.05c0.04-0.02,0.08-0.05,0.12-0.08c0.03-0.02,0.06-0.04,0.08-0.06
					c0.04-0.03,0.08-0.06,0.12-0.1c0.02-0.02,0.04-0.04,0.07-0.05c0.01-0.01,0.01-0.01,0.02-0.02l1.9-1.71v8.5l-42.36,5l2.23-6.66
					L-449.75,1444.46z M-419.94,1331.51c8.06-11.82,16.9-21.1,23.61-26.84c-4.94,12.67-9.26,31.48-12.9,56.27
					c-0.04,0.3-0.09,0.59-0.13,0.89c-0.38-0.29-0.84-0.5-1.35-0.56l-17.92-2.17C-427.3,1349.72-424.75,1338.76-419.94,1331.51z
					 M-551.73,1317.02l24.72-181.9l14.74,105.71l6.39,47.23c0.11,0.8,0.57,1.51,1.24,1.95c-0.07,0.37-0.07,0.76,0.01,1.13l6.5,29.73
					c0.28,1.3,1.45,2.21,2.78,2.16c1.33-0.04,2.43-1.03,2.63-2.34l4.05-27.11l6.47,45.04c0.02,0.15,0.05,0.3,0.1,0.44l1.73,5.46
					l-1.69-2.23c-0.63-0.84-1.69-1.24-2.72-1.04l-4.17,0.8l-3.4-3.54v-7.13c0-0.73-0.29-1.43-0.81-1.95l-4.99-4.99
					c-0.67-0.67-1.62-0.94-2.53-0.74c-0.5-0.69-1.32-1.15-2.24-1.15c-1.52,0-2.75,1.23-2.75,2.75v3.47c0,0.73,0.29,1.43,0.81,1.95
					l1.95,1.95c0.72,0.72,1.77,0.98,2.74,0.69c0.75-0.23,1.36-0.76,1.69-1.46l0.62,0.61v7.1c0,0.71,0.27,1.39,0.77,1.91l5.21,5.42
					c0.65,0.67,1.59,0.97,2.51,0.8l3.96-0.76l4.42,5.85l0.35,21.7l-27.48-23.84v-32.26c0-0.78-0.33-1.52-0.9-2.04
					c-0.57-0.52-1.34-0.77-2.11-0.7l-15.05,1.45c-0.85,0.08-1.61,0.55-2.06,1.27l-2.42,3.83l-3.81,1.23v-5.05
					c0-0.82-0.36-1.59-0.99-2.11c-0.63-0.52-1.45-0.74-2.25-0.6l-14.41,2.6l0.26-0.66
					C-551.82,1317.45-551.76,1317.23-551.73,1317.02z M-539.26,1531.7l-0.12-1.4c-0.07-0.83-0.51-1.58-1.19-2.05
					c-2.77-1.89-10.17-7.97-11.13-13.37c-0.27-1.54,0.01-2.83,0.89-4.07c0.24-0.34,0.41-0.73,0.48-1.15
					c0.41-2.49-2.07-6.43-3.45-8.17c-1.22-1.54-2.51-2.69-3.82-3.42l0.06-0.31c0.13-0.66,0.02-1.35-0.32-1.93l-1-1.71
					c0.86-1.5,1.79-3.77,1.24-6c-0.23-0.91-0.76-2.08-2.01-3.03c-0.71-3.74-1.59-9.04-2.06-11.97c0.39-0.47,0.62-1.08,0.62-1.74
					v-57.33l16.11-0.75v106.18c0,1.52,1.23,2.75,2.75,2.75c1.52,0,2.75-1.23,2.75-2.75v-105.42l11.68,3.33v92.98
					c0,1.52,1.23,2.75,2.75,2.75c1.52,0,2.75-1.23,2.75-2.75v-95.06c0-1.23-0.82-2.31-2-2.65l-4.18-1.19l-14.49-29.22l-0.91-11.81
					c-0.1-1.36-1.19-2.44-2.55-2.53c-1.36-0.1-2.59,0.82-2.88,2.15l-2.76,12.51l-14.18,25.1c-0.23,0.41-0.36,0.88-0.36,1.35v0.71
					l-5.97,3.09c-0.39-1.03-1.37-1.78-2.54-1.79c-0.01,0-0.02,0-0.04,0c-0.68,0-1.31,0.25-1.79,0.67v-44.31
					c0-0.06-0.01-0.12-0.01-0.18l63.28-11.97v189.11C-520.74,1539.39-529.33,1535.14-539.26,1531.7z M-563.33,1490.8
					c-0.45-0.48-0.71-0.92-0.69-1.23c0.01-0.18,0.09-0.38,0.21-0.57c0.18,0.15,0.39,0.27,0.61,0.37c0.13,0.06,0.21,0.11,0.25,0.14
					C-562.93,1489.75-563.07,1490.24-563.33,1490.8z M-563.14,1497.72l-0.02,0.08l-0.08-0.1c0.01-0.02,0.03-0.04,0.04-0.07
					L-563.14,1497.72z M-567.62,1494.27c-0.23,0.57-0.69,0.98-0.79,1.06c-0.61,0.42-1,1.05-1.12,1.78
					c-0.12,0.68,0.06,1.35,0.43,1.93c-1.51,1.12-3.21,2.91-4.45,5.72l1.1-85.77l5.86-3.03v53.37c-0.58,0.51-0.94,1.25-0.94,2.07
					v13.45c-0.86,0.93-1.9,2.44-2,4.42C-569.59,1490.54-569.28,1492.36-567.62,1494.27z M-566.24,1332.62l3.07,2.71
					c0.74,0.66,1.78,0.86,2.72,0.54l8.57-2.95c1.11-0.38,1.86-1.43,1.86-2.6v-6.8l10.02-1.81v5.53c0,0.88,0.42,1.71,1.13,2.23
					c0.71,0.52,1.63,0.66,2.47,0.39l8.36-2.7c0.61-0.2,1.14-0.6,1.48-1.15l2.23-3.53l10.69-1.03v28.2l-64.28,12.16l0.95-26.29
					L-566.24,1332.62z M-539.75,1408.27l-1.71-0.49c-0.12-0.03-0.23-0.06-0.35-0.07c-0.03-0.01-0.07-0.01-0.1-0.01
					c-0.08-0.01-0.17-0.02-0.25-0.02c-0.02,0-0.03,0-0.05,0c-0.04,0-0.08,0-0.13,0l-18.03,0.83l12.94-22.9l11.82,23.84
					L-539.75,1408.27z M-575.19,1318.04l6.53-44.3l8.07,50.28c0.17,1.09,0.98,1.96,2.04,2.23c1.07,0.27,2.19-0.12,2.86-1l0.16-0.2
					v3.3l-5.2,1.79l-2.98-2.63c-0.69-0.61-1.65-0.83-2.54-0.59l-12.92,3.48l3.87-11.92
					C-575.25,1318.34-575.21,1318.19-575.19,1318.04z M-594.44,1526.9c-0.06-0.63-0.03-1.42,0.05-1.91c0.87-0.44,1.47-1.33,1.5-2.36
					c0.11-3.42,0.01-31.6,0-32.8c0-0.72-0.29-1.42-0.8-1.93c-0.02-0.2-0.07-0.39-0.13-0.6c-0.17-0.55-0.61-1.38-1.68-1.92
					c-0.2-0.37-0.43-0.75-0.69-1.11c0.43-0.84,0.87-1.98,0.87-3.13v-6.49c0.02-0.13,0.06-0.38,0.12-0.53
					c0.55-0.52,0.87-1.24,0.87-2.01v-9.03c0-0.71-0.27-1.37-0.74-1.87c-0.02-0.12-0.03-0.3-0.03-0.55v-2.09
					c0-0.11-0.01-0.23-0.02-0.34l-0.22-1.76c-0.07-0.53-0.28-1.02-0.61-1.41l15.97-9.07c0.52-0.29,0.92-0.75,1.16-1.29l0.54-1.23
					l-1.01,78.17c-0.01,1.06,0.57,1.99,1.45,2.46c-0.39,0.35-0.8,0.62-1.24,0.79c-0.26,0.1-0.5,0.23-0.71,0.4
					c-1.86,1.46-4.16,4.17-5.06,5.27l-9.28,4.96l-0.22-2.74c-0.06-0.82-0.49-1.56-1.16-2.03l-0.75-0.53
					c-0.03-0.15-0.06-0.3-0.11-0.44c0.45-0.15,0.87-0.41,1.19-0.77C-594.63,1528.44-594.37,1527.68-594.44,1526.9z M-626.04,1599.01
					c-0.03-0.27-2.51-27.58,12.68-41.76c0.01-0.01,0.02-0.01,0.02-0.02c11.56-11.04,17.91-14.75,18.15-14.89l13.44-7.19
					c0.33-0.18,0.62-0.42,0.85-0.71c0.72-0.89,2.79-3.35,4.26-4.6c6.26-2.81,8.22-12.48,8.41-14.98c0.17-2.28-0.59-4.12-1.37-5.37
					c0.25-0.29,0.43-0.63,0.54-0.99c1.4-4.71,4.39-5.75,4.73-5.86c0.61-0.12,1.14-0.44,1.52-0.9c0.48,0.53,1.15,0.86,1.87,0.91
					c1.63,0.11,4.35,4.02,5.03,5.97c-1.26,2.2-1.66,4.63-1.2,7.24c0.67,3.78,3.18,7.8,7.45,11.96c1.93,1.88,3.79,3.36,4.91,4.2
					l0.16,1.94c0.09,1.1,0.83,2.04,1.88,2.38c11.75,3.9,21.54,8.92,29.11,14.9c0.19,1.33,1.34,2.36,2.72,2.36c0.03,0,0.05,0,0.08,0
					c2.97,2.65,5.54,5.46,7.69,8.43c0,0,0,0.01,0.01,0.01c0,0.01,0.01,0.01,0.01,0.02c0.35,0.49,0.69,0.99,1.02,1.48
					c4.36,6.77,5.83,15.2,6.31,19.51c-1.4,0.13-2.49,1.31-2.49,2.74v13.51l-5.32,0.57l-42.47,0.71l-49.71,0.89l-28.19,0.35
					l-3.23-0.31C-626.38,1600.94-625.94,1599.99-626.04,1599.01z M-498.27,1559.34c0.11-0.35,0.31-0.83,0.56-1.33
					c6.85-0.37,35.08-2.02,50.99-4.44c15.18-2.36,27.25-4,31.58-4.58l0.65,1.02c0.57,0.89,1.59,1.38,2.64,1.26l7.71-0.91l11.91-1.26
					v33.97l-43.44,0.38c-0.15,0-0.29,0-0.44,0l-31.37-0.4c-0.01,0-0.02,0-0.04,0h-22.43c-0.08-3.68-0.88-10.26-4.78-17.84
					c-0.87-1.69-1.85-3.34-2.94-4.96C-497.86,1559.93-498.06,1559.63-498.27,1559.34z M-629.65,1607.81l0.08-1l5.24,0.51
					c0.1,0.01,0.2,0.02,0.3,0.01l28.35-0.36l49.72-0.89l42.59-0.71c0.08,0,0.17-0.01,0.25-0.02l8.47-0.91l0.31,6.37l-11.03,1.15
					l-37.84,1.09l-21.55,0.36c-0.03,0-0.05,0-0.08,0l-30.73,1.42l-28.56-0.87l-5.74-3.58L-629.65,1607.81z M-488.51,1617.8
					l-1.65,1.98l-104.62,5.75c-0.16-0.03-0.33-0.05-0.5-0.05c-0.28,0-0.55,0.04-0.8,0.12l-4.05,0.22h-31.18h0h-1.83l-8.6-8.51
					l0.3-1.48l8.09-1.13l6.94,4.33c0.41,0.26,0.89,0.4,1.37,0.42l29.41,0.89c0.03,0,0.06,0,0.08,0c0.04,0,0.08,0,0.13,0l30.79-1.42
					l21.52-0.36c0.01,0,0.02,0,0.03,0l37.96-1.09c0.07,0,0.14-0.01,0.21-0.01l13.43-1.4c0.78-0.08,1.45-0.48,1.9-1.07l1.06,0.45
					V1617.8z M-381.51,1495.65c-0.04,0-0.08,0.01-0.11,0.01c-1.34,0.18-2.35,1.31-2.39,2.66l-0.86,34.52l-1.85,0.36
					c-0.16,0.03-0.32,0.08-0.47,0.14l-7.75,3.03c-0.6,0.24-1.1,0.68-1.41,1.25l-0.51,0.93c-0.52,0.96-0.43,2.13,0.23,3l1.12,1.46
					c0.02,0.31,0.09,0.6,0.21,0.88l-9.44,1c-0.01,0-0.02,0-0.03,0l-6.01,0.71l-0.66-1.04c-0.57-0.9-1.62-1.39-2.67-1.25
					c-0.14,0.02-14.34,1.86-33.45,4.82c-17.82,2.72-51.62,4.45-51.96,4.47c-0.9,0.05-1.72,0.53-2.19,1.29
					c-0.14,0.22-0.27,0.44-0.39,0.65c-1.82-2.05-3.84-4.02-6.04-5.91v-190.65l27.32,23.71c-0.13,0.32-0.2,0.66-0.2,1.02l-0.33,43.27
					c0,0.02,0,0.05,0,0.07l0.29,16.67l-7.79,0.94c-1.05,0.13-1.94,0.85-2.28,1.86l-4.17,12.43c-0.3,0.89-0.12,1.88,0.47,2.61
					c0.53,0.65,1.31,1.02,2.14,1.02c0.11,0,0.22-0.01,0.32-0.02l49.1-5.8c1.39-0.16,2.43-1.34,2.43-2.73v-16.86l11.98-63.02
					l13.74,44.33c0,0.01,0.01,0.03,0.01,0.04c0.01,0.03,0.02,0.07,0.04,0.1c0.02,0.05,0.04,0.09,0.05,0.13
					c0.01,0.03,0.02,0.06,0.04,0.09c0.03,0.07,0.07,0.14,0.11,0.21c0,0,0,0.01,0.01,0.01c0.04,0.07,0.08,0.13,0.13,0.19
					c0.01,0.02,0.03,0.04,0.04,0.05c0.04,0.05,0.07,0.1,0.11,0.14c0.02,0.02,0.03,0.04,0.05,0.05c0.04,0.05,0.09,0.1,0.14,0.14
					c0.01,0.01,0.02,0.02,0.03,0.03c0.06,0.05,0.12,0.1,0.18,0.15c0.02,0.02,0.04,0.03,0.06,0.04c0.04,0.03,0.09,0.06,0.13,0.09
					c0.03,0.02,0.05,0.03,0.08,0.05c0.04,0.03,0.09,0.05,0.14,0.08c0.03,0.01,0.05,0.03,0.08,0.04c0.07,0.03,0.14,0.06,0.21,0.09
					c0.02,0.01,0.05,0.02,0.07,0.03c0.05,0.02,0.11,0.04,0.16,0.05c0.03,0.01,0.06,0.02,0.09,0.02c0.06,0.02,0.12,0.03,0.18,0.04
					c0.02,0,0.04,0.01,0.07,0.01c0.08,0.01,0.15,0.02,0.23,0.03c0.01,0,0.01,0,0.02,0c0,0,0.01,0,0.01,0c0.05,0,0.11,0,0.16,0.01
					c0.09,0,0.18,0,0.26-0.01c0.03,0,0.05-0.01,0.08-0.01c0.05-0.01,0.1-0.01,0.16-0.02c0.03-0.01,0.06-0.01,0.09-0.02
					c0.05-0.01,0.1-0.02,0.15-0.04c0.03-0.01,0.06-0.01,0.09-0.02c0.07-0.02,0.14-0.05,0.21-0.07c0.03-0.01,0.05-0.02,0.07-0.03
					c0.05-0.02,0.09-0.04,0.14-0.06c0.03-0.01,0.05-0.03,0.08-0.04c0.04-0.02,0.08-0.05,0.13-0.07c0.02-0.02,0.05-0.03,0.07-0.05
					c0.05-0.03,0.09-0.06,0.14-0.1c0.02-0.01,0.03-0.02,0.05-0.04c0.06-0.05,0.12-0.1,0.18-0.15c0.01-0.01,0.02-0.02,0.03-0.03
					c0.04-0.04,0.09-0.09,0.13-0.13c0.02-0.02,0.04-0.04,0.05-0.06c0.03-0.04,0.06-0.08,0.1-0.12c0.02-0.02,0.04-0.05,0.05-0.07
					c0.03-0.04,0.05-0.08,0.08-0.12c0.02-0.03,0.03-0.05,0.05-0.08c0.03-0.05,0.06-0.1,0.08-0.15c0.01-0.02,0.02-0.04,0.03-0.07
					l34.56-71.3l38.12,66.59c0.52,0.91,1.51,1.44,2.55,1.38c1.04-0.06,1.96-0.71,2.37-1.67l27.63-64.86l22.4,58.33
					c0.16,0.42,0.41,0.78,0.73,1.06c-1.37,4.47-2,7.68-2.04,7.88c-0.29,1.49,0.69,2.93,2.18,3.22c0.18,0.03,0.35,0.05,0.52,0.05
					c1.29,0,2.45-0.92,2.7-2.23c0.01-0.07,1.44-7.34,4.69-15.07c2.87-6.81,7.77-15.41,14.85-17.71c4.48-1.46,12.57-2.62,21.76-3.53
					c-5.15,1.9-10.32,4.64-15.49,8.23c-12.16,8.44-21.42,22.45-26.79,40.53c-2.92,9.84-3.95,18.31-4.3,22.36l-8.6,0.34v-6.31
					c0-1.41-1.06-2.59-2.46-2.74l-41.68-4.51c-0.2-0.02-0.4-0.02-0.6,0l-75.91,8.38c-0.32,0.04-0.64,0.13-0.93,0.27l-31.85,15.92
					c-0.96,0.48-1.55,1.48-1.52,2.55l0.16,5.03l-4.18,3.01c-1.14,0.82-1.48,2.38-0.78,3.6c0.5,0.88,1.43,1.38,2.39,1.38
					c0.37,0,0.75-0.08,1.11-0.24l32.9-14.56l80.67-8.45l-25.5,59.3l-7.83,1.76l-0.29-2.18l0.58-1.85c0.17-0.53,0.17-1.1,0-1.63
					l-1.12-3.65l-0.74-9.71c-0.1-1.36-1.19-2.44-2.55-2.54c-0.1-0.01-0.2-0.01-0.3,0l-0.85-8.18l0.22-0.05
					c1.24-0.29,2.12-1.4,2.12-2.68v-1.82c0-0.53-0.15-1.02-0.41-1.44c0.26-0.42,0.41-0.92,0.41-1.44v-2.58
					c0-0.82-0.36-1.59-0.99-2.12c-0.63-0.52-1.46-0.74-2.26-0.59l-4.1,0.76c-0.23,0.04-0.44,0.11-0.65,0.21l-1.97,0.91
					c-0.91,0.42-1.51,1.29-1.59,2.29l-0.15,1.97c-0.05,0.61,0.11,1.22,0.45,1.73c-0.27,0.78-0.18,1.66,0.27,2.38l1.33,2.11
					L-381.51,1495.65z M-308.33,1452.05l-23.46-3.06c-0.21-0.03-0.43-0.03-0.64-0.01l-84.05,8.8c-0.29,0.03-0.56,0.1-0.83,0.22
					l-24.15,10.69l-0.07-2.12l29.83-14.91l75.12-8.3l38.92,4.21v4.06l-6.36,0.25L-308.33,1452.05z M-328.57,1530.89
					c-0.3-0.01-0.59,0.04-0.87,0.13l-9.65,3.05l-34.93,3.81l-5.88-1.21c0.3-0.43,0.47-0.95,0.49-1.5l0.7-28.07
					c1.11-0.3,1.94-1.27,2.03-2.44l0.09-1.15l0.14,0.47c0.27,0.94,1.01,1.65,1.92,1.9l0.1,1.35c0.02,0.2,0.05,0.41,0.11,0.6
					l0.96,3.13l-0.5,1.61c-0.12,0.38-0.15,0.78-0.1,1.18l0.76,5.77c0.1,0.77,0.52,1.46,1.15,1.9c0.63,0.44,1.42,0.6,2.18,0.43
					l12.14-2.73c0.86-0.19,1.58-0.79,1.92-1.6l25.42-59.11l22.04-0.86c0,0,0,0,0,0l7.94-0.31l36.32-1.42l22.8,55.89
					c0.07,0.17,0.16,0.33,0.26,0.49l1.21,1.82c0.46,0.69,1.21,1.14,2.04,1.21l1.67,0.15c0.79,0.07,1.57-0.2,2.15-0.75
					c0.57-0.55,0.88-1.32,0.85-2.11l-0.79-18.51l0.45-0.02c0.74-0.04,1.4-0.36,1.88-0.87c0.36,0.17,0.76,0.26,1.18,0.26h0.38
					l1.3,8.3c0.17,1.07,0.95,1.94,1.99,2.23l3.34,0.91c0.83,0.22,1.71,0.05,2.39-0.47c0.35-0.27,0.63-0.61,0.81-1l0.43,0.39
					l1.23,28.76L-328.57,1530.89z M-91.6,1544.37c-0.29-0.2-0.63-0.35-0.98-0.42l-14.51-3.16c-0.17-0.04-0.35-0.06-0.53-0.06
					l-55.58-1.13c-0.54-0.86-1.52-1.37-2.56-1.28l-29.62,2.41l-18.52-0.72c0.25-0.09,0.5-0.22,0.72-0.39c0.9-0.68,1.29-1.84,1-2.93
					l-0.76-2.75l-1.35-31.56c-0.03-0.74-0.36-1.43-0.91-1.93l-0.75-0.68l-0.21-1.7l31.45-46.4c0.23-0.34,0.38-0.73,0.44-1.14
					l0.11-0.74c0.28,0.07,0.58,0.09,0.88,0.06l29.94-2.7c-0.3,2.89-0.67,7.01-0.67,9.87c0,3.65-2.94,31.06-4.07,41.32
					c-0.17,1.51,0.92,2.87,2.43,3.04c0.1,0.01,0.2,0.02,0.31,0.02c1.38,0,2.58-1.04,2.73-2.45c0.17-1.52,4.1-37.23,4.1-41.92
					c0-1.45,0.11-3.31,0.26-5.16c7,20.27,32.57,68.12,33.75,70.33c0.45,0.85,1.31,1.4,2.27,1.45c0.96,0.06,1.88-0.4,2.42-1.19
					l3.23-4.7c0.3-0.44,0.47-0.96,0.48-1.49l0.05-2.04l0.52,3.59v8.53c0,1.29,0.89,2.4,2.15,2.68l8.83,1.99
					c0.82,0.18,1.67-0.01,2.32-0.53c0.65-0.52,1.03-1.31,1.03-2.15v-6.64l1-1c0.52-0.52,0.81-1.22,0.81-1.95v-17.71
					c0.96-0.43,1.61-1.4,1.61-2.51v-4.89l1.18-0.88c0.01-0.01,0.02-0.02,0.04-0.03c0.03-0.02,0.06-0.05,0.09-0.07
					c0.04-0.03,0.07-0.06,0.1-0.09c0.03-0.03,0.05-0.05,0.08-0.08c0.03-0.03,0.06-0.07,0.1-0.1c0.02-0.03,0.05-0.06,0.07-0.08
					c0.03-0.04,0.06-0.07,0.08-0.11c0.02-0.03,0.05-0.06,0.07-0.1c0.01-0.01,0.01-0.02,0.02-0.03c0.27,0.42,0.59,0.89,0.99,1.43
					l0.45,2.57c0.23,1.3,1.35,2.25,2.67,2.27c1.32,0.02,2.47-0.9,2.73-2.2c0.19-0.93,0.5-1.99,0.74-2.59
					c0.17-0.08,0.33-0.17,0.49-0.27c0.01,0.26,0.04,0.53,0.1,0.82c0.26,1.39,0.26,1.39-0.26,2.02c-1.87,2.27-1.09,5.07-0.67,6.58
					c0.05,0.17,0.11,0.38,0.14,0.51c-0.04,0.97-0.4,5.48-0.75,9.52c-0.07,0.83,0.24,1.62,0.79,2.17c-0.54,1.46-1.27,3.45-1.27,5.75
					c0,2.15,1.06,3.51,1.7,4.32c0.09,0.11,0.2,0.26,0.28,0.36c-0.3,2.2-1.4,11.63-1.4,18.38c0,2.5,0.19,4.44,0.45,5.94h-5.17
					L-91.6,1544.37z M-20.06,1431.32c0.73,22.96,2.67,64.34,2.76,66.26v142.84l-2.7-3.92l-3.58-6.04v-142.22
					c0-0.41-0.09-0.79-0.25-1.14c-0.15-9.97-0.38-22.17-0.74-35.76c-0.01-18.19-7.25-30.21-13.32-37.1
					c-6.62-7.5-13.25-10.67-13.52-10.8c-0.72-0.34-1.56-0.35-2.29-0.02c-0.29,0.13-7.16,3.23-14.26,9.86
					c-3.42,3.2-6.3,6.67-8.62,10.37c1-5.65,2.42-9.04,3.8-11.08c8.83-12.09,19.47-17.72,22.94-19.32
					C-44.33,1396.56-20.67,1411.95-20.06,1431.32z M-77.27,1409.35c-0.02,0.02-0.04,0.05-0.05,0.07
					c-5.15,7.59-7.07,23.42-5.71,47.05c0.1,1.76,0.22,3.51,0.35,5.22c0.14,7.42-0.23,9.71-0.37,10.31
					c-0.42,0.71-0.51,1.61-0.18,2.44c0.35,0.86,1.09,1.44,1.92,1.64c0.63,5.44,1.22,9.66,1.54,11.76c-0.33,0.3-0.69,0.61-0.91,0.74
					c-0.25,0.06-0.5,0.15-0.76,0.29c-0.07-0.12-0.14-0.23-0.18-0.31c-0.21-1.5-1.32-3.38-2.6-4.35c-0.35-0.26-0.71-0.46-1.09-0.61
					l0.29-12.16c0-0.06,0-0.12,0-0.19c-1.07-24.43-3.51-41.51-7.93-55.36c-4.77-14.98-11.83-25.7-21.46-32.54l57.05,7.63
					C-62.73,1394.22-70.45,1400-77.27,1409.35z M56.35,1405.06l-0.44-0.44c0.69-0.41,1.17-1.11,1.3-1.93
					c0.17-1.07-0.3-2.15-1.21-2.74l-5.86-3.82c-0.61-0.4-1.35-0.54-2.07-0.39l-5.48,1.14l-14.23-3.71l0.1-0.2
					c0.38-0.79,0.35-1.71-0.06-2.48c-0.41-0.77-1.17-1.3-2.03-1.43l-11.46-1.65c-0.62-0.09-1.25,0.04-1.79,0.35l-2.08,1.23
					l-29.47-1.6c-0.9-0.05-1.77,0.35-2.32,1.06l-1.32,1.7l-99.69-13.34c-0.05-0.01-0.09-0.01-0.14-0.02l-26.01-2.13l2.13-4.85
					c0.61-1.38-0.01-2.99-1.38-3.62l-2.57-1.17l-0.1-5.15l137.38,19.5c0.06,0.01,0.12,0.01,0.18,0.02l24.87,1.89l14.68,3.21
					l14.81,4.34c0.83,0.24,1.73,0.08,2.42-0.44c0.69-0.52,1.1-1.34,1.1-2.2v-7.15c0-0.85-0.4-1.65-1.05-2.16l2.17-5.27
					c0.1-0.23,0.16-0.48,0.19-0.73l0.28-2.41l0.19,1.68c0.01,0.12,0.03,0.23,0.06,0.35l1.74,7.07l-0.4,0.53
					c-0.38,0.49-0.58,1.09-0.57,1.71l0.12,12.12c0.01,1.24,0.85,2.32,2.05,2.63l2.3,0.61c0.77,0.2,1.58,0.06,2.24-0.38
					c0.66-0.44,1.09-1.15,1.19-1.94l1.33-10.66c0.04-0.28,0.03-0.57-0.03-0.85l1.35-0.34c0.54-0.14,1.01-0.43,1.37-0.82l0.79,5.14
					v21c0,0.74,0.3,1.45,0.83,1.97l1.9,1.85l0.02,0.04l-1.1,0.01L56.35,1405.06z M99.54,1608.77l-26.44-28.54v-10.55l48.97,1.18
					l34.62,30.2L99.54,1608.77z M160.23,1577.85l-23.09-1.14l-12.2-10.64c-0.48-0.42-1.1-0.66-1.74-0.68l-50.1-1.21v-14.21
					l51.62,2.01c1.52,0.05,2.79-1.12,2.86-2.64l1.56-37.55l0.55-3.73l39.55-6.36l2.04,75.91L160.23,1577.85z M174.78,1502.77
					l14.98,4.93l1.26,24.07c0,0.02,0,0.05,0,0.07l3.23,41.35v3.96l-17.47,0.36L174.78,1502.77z"/>
			</g>
		</g>
	</g>
</g>
<g>
	<g>
		<g>
			<path class="st1" d="M917.34,603.24l-4.14-3.89c-0.68-0.64-1.61-0.96-2.54-0.88l-51.74,4.37c-1.66,0.14-2.96,1.5-3.03,3.17
				l-1.12,29.1c-0.05,1.36,0.74,2.62,1.99,3.16c0.42,0.18,0.87,0.27,1.31,0.27c0.87,0,1.72-0.34,2.35-0.98l4.27-4.32
				c0.01-0.01,0.01-0.02,0.02-0.02c0.07-0.07,6.75-6.91,16.23-11.45c2.39-1.15,4.73-2.04,7.02-2.68v34.87
				c0,1.11,0.56,2.14,1.48,2.76l12.79,8.47c-0.71,1.27-1.3,2.82-1.3,4.51c0,4.08,2.2,6.17,2.64,6.55c0.6,0.52,1.37,0.8,2.15,0.8
				c0.18,0,0.36-0.01,0.54-0.04l6.38-1.06c1.56-0.26,2.72-1.59,2.76-3.18l1.25-47.94l1.17-1.76c0.01-0.01,0.02-0.03,0.02-0.04
				c0.03-0.04,0.05-0.08,0.08-0.13c0.02-0.03,0.04-0.06,0.05-0.09c0.02-0.04,0.04-0.08,0.06-0.13c0.02-0.03,0.03-0.07,0.05-0.1
				c0.02-0.04,0.04-0.08,0.05-0.13c0.01-0.03,0.03-0.07,0.04-0.1c0.02-0.05,0.03-0.09,0.04-0.14c0.01-0.03,0.02-0.07,0.03-0.1
				c0.02-0.06,0.03-0.12,0.04-0.19c0-0.02,0.01-0.04,0.01-0.05c0.02-0.08,0.03-0.16,0.04-0.25c0-0.02,0-0.03,0-0.05
				c0.01-0.07,0.01-0.13,0.02-0.2c0-0.03,0-0.06,0-0.09c0-0.05,0-0.11,0-0.16c0-0.04,0-0.07-0.01-0.11c0-0.04,0-0.08-0.01-0.13
				c-1.01-10.01-0.27-13.67-0.16-14.16C918.75,605.45,918.35,604.18,917.34,603.24z M878.09,615.8
				c-7.65,3.67-13.59,8.61-16.38,11.15l0.68-17.77l47.36-4l1.75,1.64c-0.2,1.55-0.35,3.97-0.22,7.6c-0.05-0.02-0.09-0.05-0.14-0.07
				c-2.62-1.26-5.52-2.11-8.66-2.57C894.89,610.36,886.66,611.69,878.09,615.8z M908.87,669.85l-1.31,0.22
				c-0.01-0.12-0.02-0.25-0.02-0.38c0-0.72,0.74-1.85,1.4-2.57L908.87,669.85z M909.08,661.8c-0.08-0.07-0.16-0.13-0.25-0.18
				l-14.25-9.44v-34.11c2.59-0.15,4.85-0.03,6.82,0.24c3.21,0.62,6.27,1.87,9.17,3.73c-0.3,0.49-0.47,1.06-0.49,1.63L909.08,661.8z"
				/>
		</g>
		<g>
			<path class="st1" d="M1190.16,697.21c-0.18-1.73-1.66-3.01-3.39-2.97c-1.74,0.05-3.13,1.44-3.2,3.17l-0.92,23.24l-2.41-23.44
				c-0.17-1.69-1.59-2.97-3.29-2.97c0,0-0.01,0-0.01,0c-1.7,0-3.12,1.29-3.28,2.98l-3.85,39.13l-4.21-36.6
				c-0.19-1.67-1.61-2.93-3.28-2.93c-0.02,0-0.04,0-0.06,0c-1.7,0.03-3.1,1.35-3.24,3.04l-5.45,68.28
				c-0.01,0.09-0.01,0.18-0.01,0.26v16.06c0,0.32,0.05,0.65,0.14,0.96c0.01,0.03,0.92,3.13,0.46,6.32
				c-0.19,1.34-0.38,2.16-0.54,2.88c-0.35,1.57-0.56,2.66-0.34,5.05c0.13,1.48,0.51,3.36,0.94,5.55c0.56,2.84,1.19,6.05,1.35,8.69
				c0.09,1.5,0.25,2.89,0.4,4.23c0.35,2.99,0.65,5.57-0.02,8.25c-0.46,1.86-1.08,3.84-1.64,5.49l-5.58-3.65v-3.49
				c0-0.04,0-0.08,0-0.12c-0.01-0.37-1.39-37.81-2.53-70.97c-0.11-14.95-4.12-27.8-11.93-38.18c-6.21-8.26-13.48-13.16-18.41-16.13
				c-0.95-0.57-2.11-0.63-3.11-0.16c-7.26,3.41-15.08,13.8-18.11,18.11c-6.25,8.89-10.73,18.06-12,24.53
				c-0.29,1.45-0.48,3.6-0.61,6.27l-3.91-44.81c-0.15-1.74-1.62-3.05-3.37-3.02c-1.74,0.04-3.16,1.42-3.23,3.16l-1.25,28.78
				l-4.22-31.66c-0.22-1.66-1.66-2.89-3.32-2.87c-1.67,0.02-3.07,1.29-3.24,2.96l-3.86,36.64l-3.33-38.3
				c-0.15-1.7-1.57-3.01-3.28-3.02c-0.01,0-0.01,0-0.02,0c-1.7,0-3.13,1.29-3.29,2.99l-7.05,73.01c-1.04,1.04-2.39,2.75-2.66,4.84
				c-0.31,2.29,0.53,3.7,1.28,4.49c1.44,1.51,3.5,1.75,5.33,1.67c0.36,0.97,0.66,2.8,0.82,3.78c0.11,0.65,0.21,1.29,0.34,1.88
				c-1.48,0.81-3.84,2.4-4.09,5.96c-0.12,1.62-0.28,1.98-0.76,3.03c-0.49,1.07-1.15,2.53-1.99,5.47c-1.53,5.35-0.88,9.74-0.41,12.94
				c0.12,0.84,0.24,1.62,0.3,2.3c0.18,2.2,1.02,3.62,1.58,4.56c0.52,0.89,0.52,0.89,0.29,1.66c-0.87,2.87-0.28,4.46,0.34,5.72
				c0.03,0.06,0.07,0.14,0.09,0.19c-0.01,0.09-0.04,0.31-0.15,0.68c-0.99,3.21-0.11,5.79,1.12,7.53l-1.1,3.3
				c-0.54,1.63,0.25,3.4,1.82,4.08l11.21,4.87v48.47l-0.68-2.46c-0.44-1.6-1.99-2.62-3.63-2.4c-1.64,0.22-2.86,1.62-2.86,3.28v7.59
				h-0.14c-1.55,0-2.89,1.07-3.23,2.58l-2.58,11.45c-0.05,0.24-0.08,0.48-0.08,0.73v25.56c0,1.83,1.48,3.31,3.31,3.31
				s3.31-1.48,3.31-3.31v-25.19l1.92-8.51h0.8c0.37,0,0.73-0.06,1.06-0.17c0.27,0.22,0.58,0.4,0.91,0.53
				c0.98,0.38,2.09,0.26,2.97-0.31l4.02-2.58c0.95-0.61,1.52-1.66,1.52-2.78v-57.95c0-1.32-0.78-2.51-1.99-3.03l-10.42-4.53
				l0.76-2.29c0.48-1.45,0.08-2.92-1.21-3.73c-0.35-0.3-0.84-0.95-0.49-2.08c0.89-2.88,0.3-4.47-0.32-5.73
				c-0.03-0.06-0.07-0.14-0.1-0.2c0.01-0.09,0.04-0.3,0.15-0.68c1.08-3.55-0.13-5.59-0.92-6.94c-0.4-0.68-0.62-1.06-0.68-1.75
				c-0.07-0.88-0.2-1.77-0.34-2.71c-0.43-2.9-0.91-6.18,0.23-10.16c0.7-2.47,1.23-3.62,1.65-4.55c0.71-1.55,1.15-2.68,1.33-5.3
				c0.01-0.14,0.03-0.2,0.03-0.2l0,0c0.11-0.15,0.67-0.44,1-0.62c0.69-0.36,1.55-0.81,2.25-1.6c1.12-1.26,1.44-2.94,0.87-4.62
				c-0.15-0.45-0.32-1.46-0.47-2.36c-0.28-1.67-0.59-3.57-1.23-5.18c-1.33-3.38-3.59-4.09-5.01-4.17c0.03-0.03,0.06-0.05,0.09-0.07
				c0.74-0.56,1.22-1.4,1.31-2.33l3.71-38.42l3.19,36.67c0.15,1.7,1.56,3,3.26,3.02c0.01,0,0.02,0,0.03,0
				c1.69,0,3.11-1.28,3.29-2.96l4.56-43.29l5.52,41.37c0.23,1.7,1.71,2.95,3.43,2.87c1.71-0.08,3.08-1.45,3.16-3.16l0.68-15.66
				l1.33,15.23c0.04,0.44,0.17,0.88,0.38,1.27c0.68,1.28,1.24,3.1,1.14,3.66c-0.44,1.76-0.44,2.44-0.23,3.73
				c0.08,0.46,0.18,1.09,0.24,2.4c0.06,1.27,0.19,2.28,0.29,3.16c0.21,1.73,0.31,2.52-0.15,4.03c-1.12,3.67-1.68,10.14-1.68,12.73
				c0,1.94,0.95,3.46,1.71,4.68c0.24,0.38,0.41,0.67,0.54,0.91c-1.04,0.38-2.18,1.32-2.24,3.67c-0.01,0.51-0.01,1.26-0.01,2.51
				c0,3.55,0.08,4.71,0.16,5.83c0.07,0.92,0.13,1.79,0.13,4.36c0,3.51,1.01,6.05,1.75,7.91c0.32,0.8,0.76,1.9,0.67,2.19
				c-0.87,2.94,0.89,5.72,2.3,7.95c0.47,0.74,1.16,1.82,1.33,2.34c-0.13,0.96,0.16,1.92,0.79,2.68c1.07,1.27,2.71,1.59,5.77,1.81
				c1.95,0.14,4.69,0.22,8.14,0.24c5.73,0.03,13.56-0.08,23.28-0.36c7.33-0.21,14.65-0.47,20.55-0.7v73.59
				c0,1.83,1.48,3.31,3.31,3.31c1.83,0,3.31-1.48,3.31-3.31v-73.86c3.08-0.13,5.17-0.22,5.8-0.25l11.57,0.85
				c0.41,0.03,0.83-0.02,1.23-0.14c3.12-0.97,11.76-3.61,14.26-4.13c0.29-0.06,0.57-0.12,0.84-0.17c3.06-0.62,5.95-1.21,7.33-3.83
				c0.17-0.16,0.55-0.42,0.81-0.61c1.1-0.78,2.89-2.04,3.14-4.22c0.08-0.14,0.2-0.34,0.3-0.49c0.95-1.53,2.93-4.7,0.71-8.35
				c-0.74-1.22-0.74-1.22-0.82-2.15c-0.07-0.77-0.17-1.94-0.49-3.84c-0.42-2.54-0.38-3.26-0.29-4.7c0.07-1.22,0.18-2.9,0.05-6.08
				c-0.1-2.32,0.39-3.65,0.91-5.06c0.82-2.22,1.84-4.99-0.92-9.01c-2.26-3.28-2.35-3.85-2.74-6.22c-0.08-0.5-0.17-1.05-0.29-1.69
				c-0.3-1.63-0.31-3.24-0.24-4.44c0.94,1.12,2.51,1.49,3.86,0.9c1.77-0.78,3.59-2.58,3.68-10.01c0.04-3.3-0.25-6.39-0.26-6.54
				L1190.16,697.21z M1089.13,743.1c1.08-5.52,5.27-13.95,10.93-22c4.93-7.02,10.13-12.59,14.03-15.09
				c7.83,4.86,25.29,17.53,25.5,47.74c0,0.03,0,0.06,0,0.09c1.03,30.19,2.27,63.93,2.49,70.06l-0.04-0.03
				c-0.54-0.35-1.17-0.54-1.81-0.54c-0.01,0-0.02,0-0.04,0l-49.07,0.54C1089.76,802,1087.22,752.81,1089.13,743.1z M1084.15,822.47
				c0-2.8-0.07-3.83-0.14-4.82c-0.06-0.91-0.13-1.84-0.14-4.46c0.32,5.64,0.59,10.05,0.74,12.42
				C1084.34,824.68,1084.15,823.66,1084.15,822.47z M1142.11,839.92c-23.1,0.92-45.76,1.41-52.28,0.79
				c-0.46-1.32-1.25-2.57-1.99-3.74c-0.51-0.81-1.35-2.13-1.49-2.72c0.42-1.57,0.21-3-0.19-4.31c0.53,0.36,1.17,0.56,1.85,0.56
				c0.01,0,0.02,0,0.04,0l51.2-0.56l2.85,1.87V839.92z M1148.73,839.65v-3.5l5.01,3.28C1152.08,839.5,1150.4,839.58,1148.73,839.65z
				 M1190.74,774.48c-0.44-0.1-0.84-0.14-1.21-0.15c-0.03,0-0.07,0-0.1,0c-2.98,0-4.84,2.21-5.18,2.66
				c-0.31,0.4-0.52,0.87-0.62,1.37c-0.04,0.18-0.86,4.4-0.01,8.99c0.11,0.59,0.19,1.1,0.27,1.56c0.52,3.12,0.84,4.56,3.82,8.89
				c0.82,1.19,0.8,1.26,0.16,2.97c-0.62,1.68-1.47,3.99-1.32,7.63c0.12,2.84,0.03,4.26-0.04,5.4c-0.11,1.81-0.15,3.08,0.37,6.2
				c0.27,1.65,0.36,2.62,0.42,3.33c0.17,1.98,0.37,2.73,1.77,5.02c0.02,0.03,0.03,0.05,0.03,0.06c-0.05,0.28-0.47,0.97-0.71,1.34
				c-0.43,0.68-0.93,1.49-1.16,2.46c-0.16,0.12-0.35,0.25-0.49,0.35c-0.9,0.63-1.99,1.41-2.69,2.64c-0.54,0.23-1.86,0.5-2.95,0.72
				c-0.28,0.06-0.57,0.12-0.87,0.18c-2.93,0.61-11.86,3.35-14.29,4.11l-7.99-0.58c0.5-0.37,0.9-0.88,1.13-1.47
				c0.09-0.22,2.1-5.41,3.28-10.15c0.96-3.85,0.56-7.29,0.18-10.62c-0.14-1.25-0.29-2.55-0.37-3.86c-0.18-3.08-0.86-6.54-1.46-9.58
				c-0.38-1.92-0.74-3.73-0.84-4.87c-0.14-1.49-0.06-1.84,0.21-3c0.17-0.76,0.41-1.8,0.63-3.4c0.55-3.84-0.2-7.34-0.54-8.66v-15.48
				l2.74-34.28l3.87,33.66c0.19,1.67,1.61,2.93,3.28,2.93c0.01,0,0.02,0,0.03,0c1.69-0.01,3.1-1.3,3.26-2.98l3.67-37.29l3.81,37.02
				c0.18,1.73,1.66,3.01,3.39,2.97c1.73-0.05,3.13-1.44,3.2-3.17l0.9-22.86l2.26,22.18
				C1190.84,769.42,1190.88,772.36,1190.74,774.48z"/>
		</g>
		<g>
			<path class="st1" d="M1522.94,721.86l-6.48-204.17c-0.06-1.83-1.58-3.26-3.41-3.2c-1.83,0.06-3.26,1.58-3.2,3.41l0.12,3.72
				c-0.45-0.2-0.94-0.31-1.47-0.29c-1.83,0.06-3.26,1.58-3.2,3.41l6.18,203.35c0.05,1.79,1.52,3.21,3.31,3.21h7.81
				c1.17,0,2.26-0.62,2.85-1.64c0.59-1.01,0.6-2.27,0.03-3.29L1522.94,721.86z"/>
		</g>
		<g>
			<path class="st1" d="M1695.69,743.29l-1.56-24.9c0-0.02-0.01-0.05-0.01-0.07c-0.01-0.09-0.02-0.18-0.03-0.27
				c-0.01-0.04-0.01-0.07-0.02-0.11c-0.02-0.12-0.05-0.24-0.09-0.36c0,0,0,0,0-0.01c-0.04-0.12-0.09-0.24-0.14-0.36
				c-0.01-0.02-0.02-0.05-0.03-0.07c-0.04-0.09-0.09-0.18-0.14-0.26c-0.02-0.03-0.04-0.06-0.06-0.09c-0.05-0.08-0.11-0.16-0.17-0.23
				c-0.02-0.02-0.04-0.05-0.06-0.07c-0.08-0.09-0.16-0.18-0.25-0.27c-0.02-0.02-0.04-0.04-0.06-0.05c-0.07-0.07-0.15-0.13-0.23-0.19
				c-0.03-0.02-0.06-0.05-0.09-0.07c-0.08-0.06-0.16-0.11-0.25-0.16c-0.02-0.01-0.03-0.02-0.05-0.03l-2.46-1.39v-3.77
				c0-0.09,0-0.17-0.01-0.26l-3.89-49.76l-4.41-84.26c-0.01-0.1-0.01-0.19-0.03-0.29l-3.63-25.68c-0.2-1.43-1.31-2.57-2.74-2.8
				c-0.1-0.02-0.2-0.03-0.31-0.04l-1.34-17.19c-0.12-1.59-1.37-2.87-2.95-3.03c-1.59-0.16-3.07,0.83-3.52,2.36l-0.36,1.22
				l-22-131.32c-0.27-1.59-1.65-2.76-3.26-2.76c-0.01,0-0.02,0-0.03,0h0c-1.63,0.01-3,1.21-3.24,2.82l-20.37,136.4
				c-0.67-0.82-1.72-1.29-2.84-1.2c-1.67,0.14-2.96,1.5-3.02,3.18l-0.47,12.94c-0.57-1.17-1.79-1.92-3.14-1.85
				c-1.66,0.08-3,1.39-3.13,3.05l-5.71,74.71c-0.01,0.08-0.01,0.17-0.01,0.25v2.31l-0.54,3.67l-61.22-6.41v-3.39
				c0-0.04,0-0.09,0-0.13l-0.33-8.14l-0.82-37.72c-0.01-0.3-0.05-0.59-0.14-0.88l-0.74-2.48l0.17-0.83c0.1-0.49,0.08-0.99-0.04-1.47
				l-1.71-6.7l-1.26-25.19l0.95-2.84c0.44-1.31,0.01-2.7-0.98-3.55c0.48-0.78,0.63-1.74,0.37-2.66l-1.16-4.03l0.23-0.06l4.4,0.29
				c1.07,0.08,2.12-0.38,2.79-1.22c0.68-0.84,0.9-1.95,0.61-2.99l-0.98-3.43c-0.27-0.94-0.94-1.72-1.84-2.11l-3.24-1.44l-1.77-4.05
				c-0.17-0.39-0.42-0.75-0.72-1.04l-1.75-1.7v-24.08c0-0.17-0.01-0.33-0.04-0.5l-2.87-18.82v-4.55c0-1.08-0.53-2.09-1.41-2.71
				c-0.88-0.62-2.01-0.77-3.03-0.4l-3.2,1.16c-1.55,0.56-2.44,2.18-2.11,3.79l0.48,2.27l-0.77,7.77c-0.55-0.2-1.15-0.25-1.73-0.15
				l-1.67-6.79l-2.08-18.42l0.35-1.05c0.34-1.01,0.17-2.12-0.45-2.98c-0.36-0.49-0.84-0.87-1.38-1.11
				c-0.26-0.95-0.93-1.76-1.86-2.17c-1.2-0.53-2.59-0.3-3.56,0.58l-0.78,0.71l-0.5,0.05c-1.17,0.11-2.19,0.83-2.69,1.89
				c-0.5,1.06-0.4,2.31,0.27,3.28l1.02,1.48v1.4l-1.96,16.97l-3.61,8.75c-0.67,1.63,0.06,3.51,1.66,4.26l0.28,0.13v2.07l-12.5-3.66
				l-6.99-10.72l0.38-0.43c0.96-1.09,1.1-2.68,0.34-3.92l-0.78-1.27l-3.12-26.45l0.49-0.73c0.95-1.42,0.66-3.33-0.67-4.41
				l-3.78-3.06c-1.3-1.05-3.17-0.97-4.37,0.19l-3.64,3.49c-0.84,0.81-1.2,2-0.93,3.14c0.25,1.05,0.99,1.91,1.98,2.31l-0.84,8.2
				l-41.72-64l-0.01-0.01c0,0,0,0,0,0l-0.01-0.01c-0.03-0.04-0.06-0.08-0.08-0.12c-0.04-0.05-0.07-0.1-0.11-0.15
				c-0.03-0.04-0.07-0.07-0.1-0.11c-0.04-0.05-0.08-0.09-0.12-0.14c-0.04-0.04-0.07-0.07-0.11-0.1c-0.04-0.04-0.08-0.08-0.13-0.12
				c-0.04-0.03-0.08-0.06-0.13-0.1c-0.04-0.03-0.09-0.07-0.13-0.1c-0.05-0.03-0.09-0.06-0.14-0.09c-0.04-0.03-0.09-0.06-0.13-0.08
				c-0.05-0.03-0.1-0.05-0.15-0.07c-0.05-0.02-0.09-0.05-0.14-0.07c-0.05-0.02-0.1-0.04-0.15-0.06c-0.05-0.02-0.1-0.04-0.15-0.05
				c-0.05-0.02-0.1-0.03-0.15-0.04c-0.05-0.01-0.1-0.03-0.15-0.04c-0.05-0.01-0.09-0.02-0.14-0.02c-0.06-0.01-0.11-0.02-0.17-0.03
				c-0.04,0-0.08-0.01-0.13-0.01c-0.06-0.01-0.13-0.01-0.19-0.01c-0.04,0-0.07,0-0.11,0c-0.07,0-0.14,0-0.21,0.01
				c-0.03,0-0.07,0.01-0.1,0.01c-0.07,0.01-0.15,0.01-0.22,0.03c-0.03,0.01-0.06,0.01-0.09,0.02c-0.08,0.02-0.15,0.03-0.23,0.05
				c-0.03,0.01-0.05,0.02-0.08,0.03c-0.08,0.02-0.15,0.05-0.23,0.08c-0.04,0.02-0.08,0.03-0.11,0.05c-0.06,0.03-0.13,0.05-0.19,0.08
				c-0.1,0.05-0.2,0.11-0.29,0.17l-0.95,0.61l-7.14-1.26l-159.44-28.14l-1.9-6.61c0,0,0,0,0,0l-0.01-0.02l-1.31-4.42l0.43-1.37
				c0.2-0.65,0.2-1.35-0.01-2l-0.46-1.43c0.39-0.55,0.62-1.21,0.62-1.93v-3.2c0-1.2-0.65-2.3-1.69-2.88l-3.64-2.04
				c-0.65-0.36-1.39-0.5-2.13-0.38l-4.66,0.73c-1.03,0.16-1.93,0.8-2.42,1.73c-0.49,0.93-0.51,2.03-0.05,2.97l0.46,0.95l-1.43,1.15
				c-1.22,0.97-1.59,2.67-0.89,4.06l1.16,2.33c0.11,0.22,0.18,0.35,0.33,0.53c0.1,0.14,0.72,1.08,1.2,2.71
				c0.03,0.1,0.06,0.2,0.1,0.29c0.06,0.16,0.11,0.3,0.15,0.42c-0.01,0.01-0.01,0.03-0.02,0.04c-0.06,0.12-0.12,0.24-0.16,0.37
				c-0.01,0.02-0.02,0.04-0.02,0.06c-0.04,0.11-0.07,0.23-0.1,0.35l-2.94,12.76l-80.25,92.65l-8.57,0.48
				c0.67-0.8,0.94-1.89,0.66-2.96c0-0.01-0.26-1.02-0.32-2.55c-0.05-1.18-0.45-3.4-1.05-6.65c-0.29-1.57-0.69-3.71-0.73-4.26
				c-0.01-0.94-0.25-2.13-1.21-3.09c-0.32-0.61-0.81-1.14-1.43-1.52c-0.17-0.11-0.35-0.2-0.54-0.28c-0.02-0.09-0.04-0.18-0.07-0.28
				c-0.1-0.41-0.09-0.56-0.05-1.12c0.03-0.35,0.06-0.78,0.06-1.32c0-1.12,0-1.12,0.19-1.75c0.32-1.03,0.41-1.64,0.49-2.23
				c0.01-0.08,0.02-0.16,0.03-0.24c0.27-1.59-0.58-2.76-0.98-3.32c-0.01-0.01-0.02-0.02-0.02-0.03c-0.01-0.1-0.02-0.19-0.03-0.28
				c0.39-0.61,0.62-1.33,0.67-2.12c0.03-0.54-0.03-1.14-0.18-1.75c1.4-0.96,1.84-2.58,1.5-3.94c-0.36-1.42-1.5-2.49-2.9-2.89
				c-0.11-0.72-0.46-1.4-1.01-1.9l-1.36-1.28c-0.96-0.9-2.37-1.15-3.58-0.62c-1.21,0.52-1.99,1.72-1.99,3.03v0.66
				c-1.37,0.24-2.47,1.34-2.69,2.75l-0.17,1.11c-0.15,0.96,0.12,1.92,0.76,2.65c0.01,0.01,0.4,0.48,0.81,1.19
				c-0.17,0.68-0.28,1.6-0.03,2.73c-1.1,1.53-0.91,2.94-0.55,3.87c-0.06,0.19-0.11,0.38-0.14,0.57c0,0.01-0.08,0.53-0.23,1.27
				c-0.12,0.61-0.07,1.25,0.16,1.84c0.03,0.09,0.09,0.24-0.2,0.83c-0.97,1.58-1.01,3.36-0.56,4.83l-1.98,10.15l-2.22,4.94
				c-0.58,1.3-0.27,2.82,0.77,3.79l0.7,0.64l0.6,21.19l-3.02,7.33c-1.19-14.62-3.43-42.16-4.38-54.59
				c-1.37-18.06-9.44-36.43-22.16-50.4c-12.6-13.7-31.98-18.14-32.8-18.32c-0.29-0.06-0.59-0.09-0.88-0.07l-7.79,0.39l-3.13-0.13
				c-0.31-0.25-0.74-1.28-0.86-2.05c-0.06-0.42-0.2-0.83-0.41-1.2l-1.03-1.79l-0.11-4.05c-0.01-0.42-0.1-0.83-0.27-1.21l-0.53-1.23
				c0-4.71,0.06-11.43,0.19-14.2c0.51-0.88,0.82-1.92,1.05-2.88c0.06-0.25,0.09-0.5,0.09-0.76v-4.28l2.73-3.46
				c0.72-0.91,0.91-2.14,0.49-3.22l-0.84-2.21v-10.5c0-1.24-0.69-2.37-1.79-2.94l-2.6-1.35c-4.19-12.91-12.72-17.19-17.28-18.59
				c0.01-0.93-0.27-2.53-1.71-5.15l-1.12-10.04c-0.19-1.74-1.72-3.04-3.47-2.94c-1.75,0.1-3.12,1.55-3.12,3.3v8.86l-0.63,1.88
				c-0.87,1.42-1.63,3.28-1.14,5.01c-0.54,0.6-1.48,1.56-2.88,2.78c-6.38,4.32-12.44,18.91-13.83,22.42l-4.07,4.44
				c-0.54,0.59-0.85,1.36-0.87,2.16l-0.26,11.91c-0.03,1.32,0.73,2.54,1.94,3.08l0.02,0.01c0.1,0.26,0.23,0.54,0.37,0.84
				c0.38,0.76,1.03,1.34,1.83,1.63c-0.7,1.83-0.41,3.86,0.49,5.54c0.05,3.24,0.19,14.33,0.03,21.38c-3.13,2.19-8.18,6.54-10.56,8.62
				c-0.19,0.16-0.36,0.35-0.5,0.55c-0.03,0.04-1.33,1.82-3.47,4.29c-0.6,0.61-1.2,1.28-1.79,2c-2.31,2.51-5.23,5.37-8.45,7.81
				c-8.69,6.48-22.28,19.72-34.35,37.43c-0.01,0.01-0.01,0.02-0.02,0.03c-12.51,18.83-13.33,54.38-13.38,58.26l-12.58,69.12
				l-6.18,5.55L878.65,553l-0.33-19.19l0.39-50.59l0.63-0.63c0.05-0.05,0.09-0.09,0.13-0.14c0.01-0.01,0.02-0.02,0.03-0.03
				c0,0,0-0.01,0.01-0.01c0.07-0.08,0.13-0.16,0.19-0.24c0.02-0.03,0.03-0.05,0.05-0.08c0.04-0.06,0.07-0.11,0.11-0.17
				c0.02-0.03,0.04-0.07,0.06-0.1c0.03-0.05,0.06-0.11,0.08-0.17c0.02-0.03,0.03-0.07,0.05-0.1c0.04-0.08,0.07-0.17,0.1-0.25
				c0.01-0.04,0.02-0.07,0.03-0.11c0.02-0.06,0.03-0.12,0.05-0.17c0.01-0.04,0.02-0.08,0.03-0.12c0.01-0.06,0.02-0.12,0.03-0.18
				c0.01-0.04,0.01-0.07,0.01-0.11c0.01-0.08,0.01-0.16,0.02-0.25c0-0.01,0-0.03,0-0.04c0-0.1,0-0.19-0.01-0.29
				c0-0.03,0-0.05-0.01-0.08c-0.01-0.07-0.01-0.14-0.03-0.21c0-0.03-0.01-0.06-0.02-0.1c-0.01-0.07-0.03-0.13-0.04-0.19
				c-0.01-0.03-0.02-0.07-0.02-0.1c-0.02-0.07-0.04-0.14-0.07-0.21c-0.01-0.04-0.03-0.08-0.04-0.12c-0.03-0.06-0.05-0.13-0.08-0.19
				l-0.02-0.04c0-0.01-0.01-0.01-0.01-0.02l-0.73-1.55l-0.5-31.34l1.94-2.52c0.66-0.86,0.86-1.98,0.53-3.01l-4.02-12.71
				l-10.94-76.19c-0.23-1.62-1.62-2.83-3.26-2.84c0,0-0.01,0-0.01,0c-1.64,0-3.03,1.2-3.27,2.82l-5.54,37.1l-3.61-16.53l0.52-0.6
				c0.66-0.77,0.93-1.79,0.74-2.78c-0.19-0.99-0.82-1.84-1.72-2.31l-1.52-0.8l-7.44-55.06l-21.03-150.8
				c-0.23-1.63-1.63-2.85-3.27-2.85c0,0,0,0-0.01,0c-1.65,0-3.05,1.22-3.27,2.86L781.1,398.26l-11.17-69.59
				c-0.26-1.6-1.64-2.78-3.26-2.78c-0.01,0-0.01,0-0.02,0c-1.63,0.01-3.01,1.21-3.25,2.82l-10.94,74.2l-4.71,14.51l-0.51,0.91
				c-0.56,1-0.54,2.19-0.02,3.16c-0.67,0.8-0.96,1.91-0.67,2.99c0.43,1.61,1.98,2.61,3.58,2.42l-1.13,31.2l-0.3,0.21
				c0,0-0.01,0.01-0.01,0.01l-0.04,0.03c-0.02,0.01-0.03,0.02-0.04,0.03c-0.08,0.06-0.15,0.11-0.23,0.18
				c-0.03,0.02-0.06,0.05-0.08,0.08c-0.06,0.06-0.12,0.11-0.18,0.18c-0.03,0.03-0.06,0.06-0.08,0.09c-0.06,0.07-0.11,0.13-0.16,0.2
				c-0.02,0.03-0.04,0.05-0.06,0.08c-0.07,0.1-0.13,0.2-0.19,0.3c-0.01,0.01-0.01,0.03-0.02,0.04c-0.05,0.09-0.09,0.19-0.13,0.28
				c-0.01,0.03-0.02,0.06-0.04,0.09c-0.03,0.08-0.06,0.17-0.08,0.25c-0.01,0.03-0.02,0.07-0.03,0.1c-0.02,0.09-0.04,0.17-0.06,0.26
				c-0.01,0.03-0.01,0.06-0.02,0.1c-0.01,0.1-0.02,0.2-0.03,0.31c0,0.02,0,0.03,0,0.05c0,0,0,0.01,0,0.01c0,0.12,0,0.25,0.01,0.37
				c0,0.02,0.01,0.03,0.01,0.05c0.01,0.09,0.02,0.18,0.04,0.27c0,0.01,0.01,0.02,0.01,0.03c0.01,0.04,0.02,0.08,0.03,0.12
				c0.02,0.08,0.04,0.16,0.06,0.23c0.01,0.04,0.03,0.08,0.04,0.12c0.03,0.08,0.06,0.15,0.09,0.23c0.02,0.03,0.03,0.07,0.05,0.1
				c0.04,0.08,0.08,0.15,0.12,0.23c0.02,0.03,0.03,0.06,0.05,0.09c0.05,0.08,0.11,0.16,0.17,0.24c0.01,0.02,0.03,0.04,0.04,0.06
				c0.08,0.09,0.16,0.18,0.24,0.27c0.02,0.02,0.04,0.04,0.06,0.05c0.07,0.06,0.14,0.13,0.21,0.18c0.01,0.01,0.02,0.02,0.04,0.03
				l1.77,1.39v84.91l-0.71,1.42c-0.03,0.05-0.05,0.1-0.07,0.15l-0.49,1.11L725.49,566c-1,0.57-1.63,1.61-1.67,2.76
				c-0.04,1.15,0.52,2.23,1.47,2.87l0.79,0.53c0.11,0.08,0.23,0.14,0.36,0.21c0.44,0.22,1.23,0.55,2.01,0.86v2.27
				c0,1.88,0.4,3.18,0.93,4.09v8.48c-0.95,1.51-1.14,3.26-1.18,3.89c0,0.07-0.01,0.14-0.01,0.21v7.89
				c-0.05,0.29-0.39,0.97-0.69,1.41l-0.76,1.02c-0.75,1-0.87,2.34-0.31,3.46c0.39,0.77,1.05,1.35,1.84,1.63
				c0.24,0.27,0.58,0.79,0.73,1.3c0.18,0.58,0.5,1.08,0.93,1.47c0.18,0.56,0.5,1.07,0.94,1.47l0.23,0.21
				c0.02,6.01,0.09,28.74,0.03,35.9c-0.09,0.09-0.17,0.18-0.25,0.28c-0.92,1.07-1.36,2.51-1.56,3.88h-2.19
				c-1.3,0-2.48,0.76-3.02,1.95c-0.42,0.93-0.38,1.99,0.08,2.88c-0.52,1-0.49,2.2,0.08,3.18c0.59,1.02,1.68,1.65,2.86,1.65h0.13
				c0.21,0.71,0.65,1.34,1.27,1.78l0.98,0.69l0.38,4.79c-3.17,2.09-10.39,7.3-21.3,17.71c-8.61,8.04-14.33,20.24-16.53,35.28
				c-1.18,8.07-1.08,14.89-0.91,18.21l-4.17,2.41c-0.89,0.51-1.49,1.41-1.62,2.43c-0.13,1.02,0.21,2.04,0.94,2.77l0.9,0.9
				l-0.45,5.49l-10.61,1.49c-1.39,0.19-2.5,1.24-2.78,2.61l-1.19,5.82c-0.22,1.09,0.12,2.23,0.91,3.01l12.57,12.44
				c0,0,0.01,0,0.01,0.01c-1.6,1.17-2.27,2.62-2.55,3.77c-0.8,3.37,1.22,6.78,2.62,8.64c-0.15,2.41,0.52,5.66,3.5,7.99
				c0.18,6.3,2.93,11.08,4.31,13.1v107.05c0,1.83,1.48,3.31,3.31,3.31c1.83,0,3.31-1.48,3.31-3.31V812c0-0.77-0.27-1.52-0.77-2.12
				c-0.04-0.05-3.91-4.9-3.53-11.5c0.08-1.32-0.64-2.56-1.82-3.15c-1.88-0.94-1.84-2.43-1.64-3.26c0.38-1.13,0.07-2.28-0.74-3.16
				c-1.24-1.37-2.18-3.22-2.13-3.86c0.08-0.07,0.28-0.2,0.64-0.33c0.39-0.15,0.75-0.37,1.06-0.65c1.24-1.12,2.06-2.36,2.6-3.43
				h35.25c0.06,0,0.12,0,0.18,0l2.25-0.12v156.82c0,1.83,1.48,3.31,3.31,3.31c1.83,0,3.31-1.48,3.31-3.31V780.04l67.48-3.71v188.62
				c0,1.83,1.48,3.31,3.31,3.31c1.83,0,3.31-1.48,3.31-3.31V775.97l43.68-2.4v136.61c0,1.83,1.48,3.31,3.31,3.31
				c1.83,0,3.31-1.48,3.31-3.31V773.2l0.41-0.02c0.92-0.05,1.77-0.48,2.36-1.18l3.67-4.41c0.49-0.59,0.77-1.34,0.77-2.12v-6.24
				c0-1.33-0.8-2.53-2.02-3.05l-5.06-2.13l-1.2-24.89c9.35,0.11,36.04,0.4,64.54,0.44l0.27,0c0.01,0,0.03,0,0.04,0
				c0.01,0,0.02,0,0.03,0l0.35,0c18,0.02,36.67-0.07,52.11-0.36v96.79c-1.3,1.04-1.72,2.27-1.84,3.06c-0.33,2.1,0.79,3.85,1.84,4.98
				v121.48c0,1.83,1.48,3.31,3.31,3.31c1.83,0,3.31-1.48,3.31-3.31V832.61c0-0.88-0.34-1.71-0.94-2.32c0.59-0.6,0.94-1.43,0.94-2.31
				v-99.05c1.31-0.47,2.23-1.73,2.2-3.19c-0.03-1.41-0.95-2.58-2.2-3.03v-44.65v-0.15l6.41-1l3.55,0.13l5.95,1.51
				c0.33,0.08,0.68,0.11,1.02,0.09l35.88-2.24c-0.34,0.56-0.52,1.22-0.48,1.91c0.1,1.79,1.6,3.17,3.39,3.12l20.05-0.56
				c1.83-0.05,3.26-1.57,3.21-3.4c-0.05-1.83-1.57-3.26-3.4-3.21l-7.87,0.22l-5.68-4.45c-0.34-0.26-0.72-0.46-1.12-0.57l9.39-2.97
				l131.04,1.94l3.45,2.1c0.12,0.07,0.24,0.13,0.36,0.18l-9.5-0.37c-1.83-0.07-3.36,1.35-3.43,3.18s1.35,3.36,3.18,3.43l34.43,1.34
				c0.13,0.01,0.26,0,0.4-0.01l31.05-2.52c0.6,0.66,1.45,1.06,2.38,1.08l71.22,1.45l16.49,3.59l9.52,6.56
				c0.55,0.38,1.21,0.58,1.88,0.58h8.4v150.33c0,1.83,1.48,3.31,3.31,3.31s3.31-1.48,3.31-3.31V685.71c0-0.7-0.22-1.34-0.58-1.88
				l0,0c0,0,0.04,0.04,0.09,0.14c-0.01-0.02-1.2-2.25-1.2-8.7c0-7.95,1.4-19.61,1.66-21.43c0.36-2.52-0.94-4.17-1.71-5.16
				c-0.58-0.74-0.64-0.87-0.64-1.12c0-1.58,0.6-3.2,1.12-4.62c0.2-0.54,0.39-1.06,0.55-1.57c0.46-1.49,0.3-2.96-0.46-4.14
				c-0.15-0.23-0.31-0.44-0.48-0.63c0.29-3.48,0.75-9.17,0.75-10.13c0-0.77-0.2-1.48-0.41-2.24c-0.15-0.52-0.44-1.58-0.38-2.02
				c2.5-3.09,2.02-5.67,1.63-7.75c-0.04-0.21,0.02-0.43,0.24-1.15c0.27-0.84,0.63-2,0.63-3.49c0-2.87-1.77-3.98-2.53-4.32
				c-0.33-0.15-0.67-0.25-1.02-0.3c-0.77-5.42-2.2-16.31-3.14-28.75c-0.1-5.28-0.4-11.82-0.9-19.57
				c0.72-12.63,6.21-23.85,16.32-33.36c5.76-5.42,11.49-8.73,14.06-10.08c2.42,1.4,7.72,4.86,12.95,10.85
				c9.39,10.77,14.15,24.23,14.15,40.02c0,0.03,0,0.06,0,0.09c1.18,43.73,1.19,75.46,1.19,75.77v140.2c0,0.59,0.16,1.18,0.46,1.69
				l4.82,8.14c0.04,0.06,0.08,0.13,0.12,0.19l9.34,13.56c0.63,0.91,1.66,1.43,2.72,1.43c0.33,0,0.66-0.05,0.98-0.15
				c1.38-0.43,2.32-1.71,2.32-3.16V619.76c0-0.05,0-0.1,0-0.16c-0.02-0.51-2.42-51.53-3.31-79.58c-0.4-12.52-7.61-25.55-20.85-37.66
				c-3.3-3.02-6.57-5.62-9.47-7.76l22.31,2.98c1.17,0.15,2.33-0.32,3.05-1.25l1.69-2.17l33.08,1.8c-0.04,0.23-0.07,0.46-0.06,0.7
				l2.85,155.5c-1.11-39.55-2.19-83.71-2.02-101.08c0.35-37.19-19.87-40.79-20.73-40.92l-1.02,6.53l-0.05-0.01
				c0.15,0.03,3.82,0.75,7.53,5.12c6.48,7.64,7.74,20.1,7.65,29.21c-0.32,34.44,4.2,173.39,4.24,174.79c0.06,1.79,1.53,3.2,3.3,3.2
				c0.04,0,0.07,0,0.11,0c0.95-0.03,1.79-0.46,2.37-1.12l0.94,51.18c0.02,1.26,0.76,2.4,1.9,2.93c0.45,0.21,0.93,0.31,1.4,0.31
				c0.74,0,1.47-0.25,2.07-0.72l10.36-8.29c0.79-0.63,1.25-1.59,1.24-2.61l-2.07-258.4c-0.01-1.82-1.49-3.28-3.31-3.28
				c-0.01,0-0.02,0-0.03,0c-1.83,0.01-3.29,1.51-3.28,3.33l2.06,256.79l-3.86,3.09l-5.06-275.69c-0.02-0.86-0.36-1.65-0.92-2.23
				l0.18-0.11l8.18,1.18c-0.33,0.84-0.31,1.79,0.08,2.61c0.42,0.89,1.21,1.56,2.16,1.8l21.72,5.66c0.49,0.13,1.01,0.14,1.51,0.04
				l6-1.25l0.47,0.31c-0.25,0.33-0.44,0.72-0.55,1.13c-0.31,1.14,0.02,2.36,0.86,3.2l4.59,4.59c0.08,0.08,0.16,0.15,0.24,0.22
				l8.56,7.04c0.6,0.49,1.36,0.75,2.12,0.75l2.01-0.02c-0.38,0.27-0.71,0.62-0.95,1.03c-0.45,0.78-0.57,1.71-0.32,2.58l1.49,5.16
				l-0.13,0.1c-0.83,0.62-1.32,1.6-1.32,2.65v1.8c0,1.25,0.7,2.37,1.78,2.94l-0.14,0.43c-0.13,0.39-0.19,0.8-0.17,1.21l1.31,26.15
				c0.01,0.22,0.04,0.44,0.1,0.65l1.61,6.3l-0.18,0.9c-0.11,0.53-0.08,1.08,0.08,1.6l0.85,2.84l0.81,37.3c0,0.02,0,0.04,0,0.06
				l0.32,8.1v6.31c0,0,0,0,0,0c0,0,0,0,0,0.01v73.51v17.36v21.86c0,1.83,1.48,3.31,3.31,3.31c1.83,0,3.31-1.48,3.31-3.31v-13.43
				l28.08,30.31c0.63,0.68,1.51,1.06,2.43,1.06c0.15,0,0.29-0.01,0.44-0.03l77.59-10.46c1.29-0.17,2.35-1.08,2.73-2.33
				c0.37-1.24-0.02-2.59-0.99-3.44l-25.28-22.05l19.49,0.96c0.05,0,0.11,0,0.16,0c0.02,0,0.05,0,0.07,0l13.43-0.28l0.58,21.43
				c0.05,1.8,1.52,3.22,3.3,3.22c0.03,0,0.06,0,0.09,0c1.83-0.05,3.27-1.57,3.22-3.39l-0.57-21.39l25.16-0.52l1.35,21.64v25.37
				c0,1.83,1.48,3.31,3.31,3.31s3.31-1.48,3.31-3.31v-25.48C1695.7,743.42,1695.69,743.35,1695.69,743.29z M1641.73,421.16
				l19.53,116.56l1.11,6.6l-1.07,0.97c-0.38-0.19-0.81-0.31-1.27-0.33l-1.54-0.09l-3.95-5.62c-0.7-0.99-1.89-1.53-3.09-1.38
				c-1.21,0.14-2.24,0.94-2.69,2.07l-2.08,5.26l-1.58-3.96c-0.61-1.53-2.25-2.37-3.85-1.99l-16.85,4.07l-0.7-1.4L1641.73,421.16z
				 M1609.93,578.33l0.61,3.36c0.3,1.66,1.8,2.84,3.49,2.71c1.69-0.12,3.01-1.49,3.07-3.18l1.23-34.1l0.48-0.24l0.87,1.73
				c0.69,1.37,2.24,2.09,3.73,1.73l16.62-4.01l2.38,5.95c0.5,1.26,1.72,2.08,3.07,2.08h2.43c1.36,0,2.57-0.83,3.07-2.09l1.68-4.23
				l1.35,1.91c0.58,0.82,1.5,1.34,2.51,1.4l0.04,0c0.11,1.18,0.85,2.23,1.95,2.71c0.43,0.19,0.89,0.29,1.34,0.29
				c0.8,0,1.6-0.29,2.22-0.85l6.09-5.5c0.02-0.02,0.04-0.05,0.07-0.07c0.05-0.05,0.11-0.1,0.16-0.16l0.23,2.95
				c0.04,0.46,0.17,0.92,0.39,1.33l1.56,2.85c0.37,0.68,0.96,1.2,1.66,1.48l2.88,20.34l2.52,48.16l-17.82-5.86l-0.81-30.04
				c-0.05-1.83-1.57-3.26-3.39-3.22c-1.83,0.05-3.27,1.57-3.22,3.39l0.78,28.94l-46.84,7.53L1609.93,578.33z M1598.42,639.58
				l-1.62,38.89l-58.98-2.3v-42.93L1598.42,639.58z M1239.35,347.4l2.92,0.42l0.19,0.67l-1.26-0.39c-0.66-0.2-1.35-0.19-1.99,0.02
				L1239.35,347.4z M1227.29,369.76l-0.15,0.66c-0.04-0.11-0.09-0.22-0.14-0.32L1227.29,369.76z M1220.73,377.49v67.17l-0.99-0.05
				c-0.03,0-0.07,0-0.1,0l-35.27-0.57c-0.15,0-0.3,0.01-0.46,0.02l-22,2.69L1220.73,377.49z M1227.34,388.06
				c1.49-0.05,2.77-1.1,3.11-2.56l6.16-26.69l4.41-3.84l3.6,1.1l5.83,21.31c0.26,0.94,0.91,1.71,1.79,2.12
				c0.88,0.41,1.9,0.41,2.78,0l0.67-0.31l0.87,1.3v16.87c0,1.35,0.82,2.56,2.07,3.07l3.71,1.5l0.89,44.86l-1.03-0.15
				c-0.1-0.01-0.2-0.02-0.31-0.03l-34.55-1.65V388.06z M1268.92,399.62c-0.03-1.32-0.84-2.5-2.07-3l-3.67-1.49v-15.65
				c0-0.65-0.19-1.29-0.56-1.83l-2.99-4.49c-0.84-1.26-2.42-1.78-3.83-1.29l-3.91-14.28l164.74,29.08c0.13,0.02,0.27,0.04,0.4,0.05
				c0,0,0.01,0,0.01,0c0.13,0.01,0.26,0.01,0.39,0c0.02,0,0.04-0.01,0.06-0.01c0.11-0.01,0.22-0.02,0.33-0.04
				c0.04-0.01,0.08-0.02,0.11-0.03c0.09-0.02,0.17-0.04,0.26-0.06l44.13,68.51c0.33,0.51,0.79,0.91,1.31,1.17l7.56,11.6
				c0.09,0.39,0.24,0.77,0.48,1.11l4.6,6.86l-9.95-2.17c-0.15-0.03-0.3-0.05-0.45-0.07l-30-2.29l-166-23.56L1268.92,399.62z
				 M1469.34,452.37c0.2-0.38,0.32-0.79,0.37-1.21l0.48-4.71l1.11,9.45l-2.12-3.25L1469.34,452.37z M1239.87,335.17l0.64,1.98
				l-0.42,1.33c-0.13,0.41-0.17,0.84-0.14,1.27c-0.04-0.11-0.08-0.23-0.13-0.34c-0.4-1.33-0.87-2.39-1.29-3.17
				C1239.07,335.99,1239.53,335.63,1239.87,335.17z M1129.26,472.39c0.18-0.43,0.26-0.89,0.25-1.36l-0.66-23.28
				c-0.03-0.88-0.4-1.71-1.03-2.31l1.4-3.12c0.1-0.23,0.18-0.47,0.23-0.72l1.89-9.66c0.31,0.63,0.8,1.22,1.59,1.63
				c0.27,0.14,0.56,0.25,0.85,0.31c0.13,0.86,0.35,2.11,0.71,4.01c0.36,1.96,0.91,4.92,0.95,5.73c0.02,0.49,0.06,0.94,0.1,1.35
				c-1.32,0.96-2.49,2.34-2.49,4.21c0,1.62,0.51,3.68,0.62,4.07c0.4,1.52,1.81,2.55,3.38,2.47l7.2-0.4l-8.61,9.94
				c-1.2,1.38-1.05,3.47,0.33,4.66c1.38,1.2,3.47,1.05,4.66-0.33l12.81-14.78l0.3-0.02c0.86-0.05,1.66-0.43,2.24-1.06
				c0.51,0.21,1.07,0.3,1.65,0.23l26.84-3.29l34.99,0.57l1.25,0.06v13.75c0,1.83,1.48,3.31,3.31,3.31s3.31-1.48,3.31-3.31V451.6
				l34.08,1.62l1.94,0.28l0.18,9.34c0.03,1.27,0.78,2.42,1.94,2.95l2.01,0.91l-2.17,4.93l-39.56-3.23
				c-0.12-0.01-0.24-0.01-0.36-0.01c-2.82,0.08-69.22,1.92-88.29,8.11c-5.17,1.68-9.86,5.31-14.03,10.84L1129.26,472.39z
				 M1340.74,609.54c-0.01,0.07-0.01,0.14-0.02,0.21l-1.44,1.08c-0.83,0.62-1.32,1.6-1.32,2.65v4.63c-1.15,0.52-1.94,1.68-1.94,3.01
				v22.8l-1.2,1.2c-0.62,0.62-0.97,1.46-0.97,2.34v5.21l-3.99-0.9v-7.85c0-0.16-0.01-0.32-0.03-0.47l-4.79-33.18
				c-0.25-1.71-1.77-2.94-3.49-2.83l-1.71,0.11c-1.7,0.11-3.04,1.51-3.09,3.22l-0.77,30.37l-0.23,0.34
				c-8.48-16.07-35.37-67.77-39.03-83.53l-0.54-14.7c-0.06-1.63-1.3-2.98-2.93-3.16c-0.95-0.11-1.85,0.2-2.53,0.78
				c1.93-10.74,6.63-20.27,14.06-28.47c6.13-6.76,12.46-10.63,15.15-12.1c2.63,1.49,7.24,5.09,11.76,11.48
				c11.37,16.06,15.28,39.04,16.56,55.53l0.58,58.07c0.02,1.82,1.49,3.27,3.31,3.27c0.01,0,0.02,0,0.03,0
				c1.83-0.02,3.29-1.51,3.27-3.34l-0.58-58.18c0-0.07,0-0.15-0.01-0.22c-4.76-61.6-32.6-72.94-33.79-73.39
				c-0.83-0.32-1.74-0.29-2.55,0.08c-0.38,0.17-9.51,4.38-18.44,14.14c-5.32,5.81-11.2,14.38-14.46,26
				c0.23-2.72,0.62-5.57,1.22-8.49c4.15-20.11,16.23-33.85,35.9-40.87c13.47,6.87,23.06,19.75,29.3,39.33
				c5.11,16.04,7.95,35.99,9.21,64.68L1340.74,609.54z M1188.47,605.49l1.06-1.76c0.82-1.36,0.55-3.12-0.64-4.17l-0.53-0.47v-0.89
				c0-1.68-1.27-3.1-2.94-3.29l-1.64-0.18c-1.74-0.19-3.33,1-3.62,2.72l-0.91,5.29c-0.03,0.19-0.05,0.37-0.05,0.56v6.31
				c-0.6-0.86-1.6-1.41-2.71-1.41h-0.27l-2.46-26.72c-0.16-1.74-1.64-3.05-3.39-3c-1.74,0.05-3.15,1.44-3.21,3.19l-0.98,27.41
				l-0.79,0.04c-1.82,0.09-3.22,1.63-3.15,3.44l0.57,13.38l-8.29-20.33c0.97-0.73,1.5-1.96,1.26-3.23c-0.1-0.56-10.08-56.43,9.93-82
				c12.81-16.37,17.94-21.94,19.85-23.8c6.11,3.11,29.07,18.17,33.09,70.25l-29.57,43.62L1188.47,605.49z M1224.59,545.67
				l-0.99,6.58c-1.41-8.82-3.46-16.95-6.14-24.27c-3.37-9.2-7.74-17.18-13-23.71c-8.49-10.56-16.61-14-18.03-14.54
				c-0.35-0.15-0.73-0.24-1.12-0.27c-1.73-0.11-3.01,0.8-6.53,4.63c-3.95,4.29-10.1,11.77-18.28,22.22
				c-9.24,11.81-13.93,30.14-13.93,54.49c0,6.32,0.32,12.2,0.75,17.18l-9.35-22.93c-0.53-1.29-1.8-2.11-3.19-2.06l-18.76,0.73
				c0.47-4.89,1.72-14.27,4.88-24.89c4.19-14.07,12.73-33.3,29.56-44.98c14.82-10.28,29.48-14.26,43.55-11.81
				c14.13,2.46,24.56,10.83,30.82,17.41c1.26,1.32,3.35,1.38,4.68,0.12s1.38-3.35,0.12-4.67c-6.5-6.84-17.09-15.42-31.47-18.76
				c14.25-0.77,25.69-1.1,27.25-1.15l38.69,3.16v30.49c0,0.66,0.2,1.27,0.53,1.79c-2.08,4.72-3.45,9.4-4.32,13.71
				c-2.55,12.55-1.49,23.77-0.71,29.03l-27.2,2.46l-1.26-9.9c-0.21-1.64-1.59-2.87-3.24-2.89
				C1226.25,542.82,1224.83,544.03,1224.59,545.67z M1270.71,499.77V478.7l23.7,1.94C1283.57,485.62,1276,492.44,1270.71,499.77z
				 M1120.61,490.84c0.03-0.01,0.07-0.03,0.1-0.05c-0.03,0.05-0.07,0.11-0.1,0.16L1120.61,490.84z M1088.44,377.32
				c11.73,12.89,19.19,29.82,20.45,46.44c1.27,16.78,4.91,61.11,5.15,64.02l-0.08,7.77l-0.7,2.67l-26.15-68.07c0,0,0-0.01,0-0.01
				l-0.01-0.03c-0.03-0.09-0.07-0.17-0.11-0.25c-0.01-0.02-0.02-0.04-0.03-0.06c-0.04-0.07-0.08-0.15-0.12-0.22
				c-0.01-0.01-0.01-0.02-0.02-0.04c-0.01-0.01-0.01-0.02-0.02-0.03c-0.05-0.08-0.1-0.15-0.15-0.22c-0.01-0.01-0.02-0.02-0.02-0.03
				c-0.06-0.08-0.12-0.15-0.19-0.22c-0.02-0.02-0.05-0.05-0.07-0.07c-0.05-0.05-0.09-0.09-0.14-0.13c-0.03-0.03-0.06-0.05-0.09-0.08
				c-0.05-0.04-0.11-0.09-0.16-0.13c-0.03-0.02-0.06-0.04-0.08-0.06c-0.07-0.05-0.14-0.09-0.21-0.13c-0.03-0.02-0.06-0.03-0.09-0.05
				c-0.06-0.03-0.12-0.06-0.18-0.09c-0.03-0.01-0.06-0.03-0.08-0.04c-0.08-0.03-0.16-0.07-0.24-0.09c-0.01,0-0.02-0.01-0.03-0.01
				c-0.09-0.03-0.19-0.06-0.29-0.08c-0.02,0-0.04-0.01-0.06-0.01c-0.08-0.02-0.15-0.03-0.23-0.04c-0.03,0-0.06-0.01-0.08-0.01
				c-0.07-0.01-0.14-0.01-0.22-0.02c-0.03,0-0.06,0-0.08,0c-0.01,0-0.02,0-0.03,0c-0.2,0-0.39,0.01-0.58,0.04c0,0,0,0,0,0
				c-0.47,0.07-0.91,0.25-1.3,0.5c-1.94,1.21-4.15,2.51-5.97,3.52c-1.1-25.96-5.62-46.26-13.47-60.4
				c-2.64-4.75-5.26-8.07-7.49-10.35l4.23-0.21C1062.23,361.78,1078.19,366.16,1088.44,377.32z M1022.27,361.29l12.23-6.71
				c0.33,0.06,1.03,0.31,1.98,1.25c2.55,2.53,7.18,10.32,9.6,34.07c2.66,26.16,1.94,64.41-2.15,113.75l-31.41-54.87
				c0.28-0.47,0.45-1.02,0.47-1.61C1013.46,427.22,1016.05,373.79,1022.27,361.29z M1047.83,363.55c1.82,1.34,5.41,4.59,9.14,11.31
				c9.7,17.49,12.31,43.4,12.8,62.07c0,0.15,0.02,0.31,0.04,0.46c0.19,1.14,0.93,2.1,1.99,2.58c0.48,0.22,0.94,0.33,1.48,0.33
				c0.94,0,2.08-0.37,3.83-1.23l-26.3,61.73C1057.21,421.31,1053.91,382.14,1047.83,363.55z M1001.3,312.91l3.64-3.98
				c0.28-0.3,0.5-0.66,0.65-1.05c2.47-6.41,7.82-17.5,11.67-19.96c0.13-0.09,0.26-0.18,0.38-0.28c2.15-1.85,3.45-3.27,4.1-4.02
				c0.53,0.61,1.29,1.02,2.16,1.11c0.44,0.05,10.82,1.36,14.99,15.88c0.25,0.87,0.85,1.61,1.66,2.03l2.05,1.06v9.1
				c0,0.4,0.07,0.8,0.22,1.18l0.39,1.03l-2.28,2.89c-0.46,0.58-0.71,1.3-0.71,2.05v5c-0.06,0.2-0.12,0.39-0.17,0.55
				c-0.48,0.52-0.8,1.19-0.87,1.92c-0.27,2.73-0.28,15.07-0.28,16.47c0,0.45,0.09,0.89,0.27,1.3l0.54,1.27l0.1,3.53
				c-3.7-2.82-6.81-1.95-7.39-1.74c-0.17,0.06-0.34,0.13-0.5,0.22l-12.83,7.04l-13.31-0.84c0.13-8.41-0.06-20.58-0.07-21.16
				c-0.01-0.74-0.19-1.35-0.66-1.93c-0.05-0.07-0.09-0.16-0.13-0.25c0.78-0.82,1.09-1.99,0.8-3.1c-0.05-0.19-0.09-0.37-0.13-0.53
				c-0.5-2.05-1.19-3.4-3.16-4.35c-0.19-0.76-0.66-1.44-1.31-1.89L1001.3,312.91z M1003.18,361.12l11.77,0.74
				c-2.79,8.34-4.97,23.56-6.63,46.16c-0.87,11.83-1.38,23.14-1.66,30.51l-5.08-8.88c-0.61-1.06-1.76-1.71-2.98-1.66
				c-1.23,0.04-2.33,0.76-2.86,1.86l-36.56,75.42c1.14-12.46,3-30.2,5.72-48.67c7.62-51.79,16.33-72.61,22.81-80.76
				c2.86-3.1,4.84-5.68,5.5-6.57C996.93,366.02,1001.38,362.34,1003.18,361.12z M938.67,460.57l17.09,2.07
				c0.14,0.02,0.27,0.02,0.4,0.02c0.42,0,0.83-0.08,1.21-0.23c-2.26,16.4-3.84,31.77-4.85,42.84L938.67,460.57z M909.66,556.02
				c0.01,0,0.03-0.01,0.04-0.01c0.08-0.01,0.17-0.03,0.25-0.04c0.04-0.01,0.07-0.02,0.11-0.03c0.06-0.02,0.12-0.03,0.18-0.05
				c0.04-0.01,0.08-0.02,0.11-0.04c0.06-0.02,0.13-0.05,0.19-0.07c0.05-0.02,0.09-0.04,0.14-0.06c0.07-0.03,0.13-0.06,0.19-0.1
				c0.04-0.02,0.07-0.04,0.11-0.06c0.05-0.03,0.1-0.06,0.14-0.09c0.03-0.02,0.07-0.05,0.1-0.07c0.05-0.04,0.1-0.08,0.15-0.11
				c0.03-0.02,0.05-0.04,0.08-0.07c0.01-0.01,0.02-0.01,0.02-0.02l2.29-2.06v10.21l-50.89,6.01l2.68-8L909.66,556.02z
				 M945.48,420.33c9.68-14.2,20.3-25.35,28.36-32.24c-5.93,15.22-11.12,37.82-15.5,67.6c-0.05,0.36-0.1,0.71-0.16,1.07
				c-0.46-0.35-1.01-0.6-1.62-0.67l-21.53-2.61C936.64,442.2,939.7,429.03,945.48,420.33z M787.14,402.92l29.7-218.54l17.71,127
				l7.67,56.75c0.13,0.97,0.68,1.82,1.49,2.34c-0.09,0.44-0.09,0.91,0.01,1.36l7.8,35.72c0.34,1.56,1.74,2.66,3.34,2.6
				c1.59-0.05,2.92-1.24,3.16-2.82l4.87-32.57l7.77,54.11c0.03,0.18,0.07,0.35,0.12,0.53l2.08,6.56l-2.02-2.68
				c-0.76-1.01-2.03-1.49-3.26-1.26l-5.01,0.96l-4.09-4.26v-8.57c0-0.88-0.35-1.72-0.97-2.34l-5.99-5.99
				c-0.8-0.8-1.95-1.13-3.04-0.89c-0.6-0.83-1.58-1.38-2.69-1.38c-1.83,0-3.31,1.48-3.31,3.31v4.17c0,0.88,0.35,1.72,0.97,2.34
				l2.35,2.35c0.86,0.86,2.13,1.18,3.3,0.83c0.91-0.27,1.64-0.92,2.03-1.75l0.74,0.74v8.53c0,0.85,0.33,1.67,0.92,2.29l6.25,6.51
				c0.78,0.81,1.91,1.17,3.01,0.96l4.75-0.91l5.31,7.03l0.42,26.07l-33.02-28.65V404.6c0-0.93-0.39-1.82-1.08-2.45
				c-0.69-0.63-1.61-0.93-2.54-0.84l-18.08,1.75c-1.02,0.1-1.93,0.66-2.48,1.53l-2.91,4.6l-4.58,1.48v-6.06
				c0-0.98-0.43-1.91-1.19-2.54c-0.75-0.63-1.74-0.89-2.71-0.72l-17.32,3.13l0.31-0.8C787.04,403.43,787.11,403.18,787.14,402.92z
				 M802.12,660.84l-0.14-1.68c-0.08-0.99-0.61-1.9-1.43-2.46c-3.33-2.27-12.22-9.58-13.37-16.06c-0.33-1.85,0.01-3.4,1.08-4.89
				c0.29-0.41,0.49-0.88,0.57-1.38c0.5-2.99-2.49-7.73-4.14-9.81c-1.46-1.85-3.01-3.23-4.59-4.11l0.07-0.37
				c0.16-0.79,0.02-1.62-0.39-2.31l-1.2-2.06c1.03-1.8,2.15-4.53,1.49-7.21c-0.27-1.1-0.92-2.5-2.42-3.63
				c-0.86-4.5-1.91-10.86-2.48-14.38c0.47-0.57,0.75-1.3,0.75-2.09v-68.88l19.35-0.9v127.57c0,1.83,1.48,3.31,3.31,3.31
				c1.83,0,3.31-1.48,3.31-3.31V519.53l14.03,4v111.71c0,1.83,1.48,3.31,3.31,3.31c1.83,0,3.31-1.48,3.31-3.31V521.03
				c0-1.48-0.98-2.78-2.4-3.18l-5.03-1.43l-17.41-35.1l-1.09-14.19c-0.13-1.63-1.43-2.93-3.07-3.05c-1.64-0.11-3.11,0.99-3.46,2.59
				l-3.32,15.03l-17.03,30.16c-0.28,0.5-0.43,1.06-0.43,1.63v0.86l-7.18,3.71c-0.46-1.24-1.65-2.13-3.05-2.15c-0.01,0-0.03,0-0.04,0
				c-0.82,0-1.57,0.3-2.15,0.8v-53.24c0-0.07-0.01-0.14-0.01-0.21l76.03-14.38v227.2C824.38,670.08,814.06,664.97,802.12,660.84z
				 M773.21,611.7c-0.54-0.57-0.85-1.1-0.83-1.48c0.01-0.22,0.11-0.46,0.26-0.69c0.22,0.18,0.47,0.32,0.73,0.44
				c0.16,0.07,0.25,0.13,0.3,0.16C773.69,610.44,773.52,611.03,773.21,611.7z M773.44,620.01l-0.02,0.1l-0.09-0.13
				c0.02-0.03,0.03-0.05,0.05-0.08L773.44,620.01z M768.06,615.86c-0.27,0.69-0.83,1.18-0.95,1.27c-0.74,0.5-1.2,1.26-1.35,2.14
				c-0.14,0.82,0.07,1.63,0.52,2.31c-1.82,1.34-3.86,3.5-5.35,6.87l1.33-103.04l7.05-3.64v64.12c-0.69,0.61-1.13,1.5-1.13,2.48
				v16.15c-1.04,1.12-2.28,2.93-2.41,5.31C765.69,611.38,766.06,613.57,768.06,615.86z M769.71,421.67l3.69,3.25
				c0.89,0.79,2.14,1.03,3.26,0.65l10.3-3.54c1.33-0.46,2.23-1.72,2.23-3.13v-8.17l12.04-2.17v6.65c0,1.06,0.51,2.05,1.36,2.67
				c0.86,0.62,1.96,0.8,2.96,0.47l10.04-3.25c0.74-0.24,1.36-0.73,1.78-1.38l2.68-4.24l12.84-1.24v33.89l-77.22,14.61l1.14-31.59
				L769.71,421.67z M801.54,512.55l-2.06-0.59c-0.14-0.04-0.28-0.07-0.42-0.09c-0.04-0.01-0.08-0.01-0.12-0.01
				c-0.1-0.01-0.2-0.02-0.31-0.02c-0.02,0-0.04,0-0.06,0c-0.05,0-0.1,0-0.15,0l-21.66,1l15.54-27.52l14.2,28.64L801.54,512.55z
				 M758.96,404.14l7.85-53.22l9.69,60.41c0.21,1.3,1.18,2.36,2.46,2.68c1.28,0.32,2.63-0.15,3.43-1.2l0.19-0.25v3.97l-6.25,2.15
				l-3.58-3.16c-0.83-0.73-1.98-1-3.05-0.71L754.19,419l4.65-14.32C758.89,404.51,758.94,404.33,758.96,404.14z M735.83,655.08
				c-0.07-0.76-0.04-1.7,0.06-2.3c1.04-0.53,1.76-1.6,1.8-2.84c0.13-4.11,0.01-37.97,0-39.41c0-0.87-0.35-1.7-0.96-2.31
				c-0.03-0.23-0.08-0.47-0.16-0.72c-0.21-0.66-0.73-1.66-2.01-2.31c-0.24-0.45-0.52-0.9-0.83-1.34c0.52-1.01,1.05-2.37,1.05-3.76
				v-7.8c0.02-0.16,0.08-0.45,0.14-0.64c0.66-0.62,1.05-1.49,1.05-2.42V578.4c0-0.85-0.33-1.65-0.89-2.25
				c-0.02-0.14-0.04-0.35-0.04-0.66v-2.51c0-0.14-0.01-0.27-0.03-0.41l-0.26-2.12c-0.08-0.64-0.34-1.22-0.73-1.7l19.19-10.89
				c0.62-0.35,1.11-0.9,1.4-1.55l0.65-1.48l-1.21,93.92c-0.02,1.27,0.69,2.39,1.74,2.95c-0.47,0.42-0.97,0.75-1.49,0.95
				c-0.31,0.12-0.6,0.28-0.86,0.49c-2.23,1.75-4.99,5-6.08,6.33l-11.14,5.96l-0.26-3.29c-0.08-0.98-0.59-1.87-1.39-2.44l-0.9-0.63
				c-0.03-0.18-0.08-0.36-0.14-0.53c0.55-0.18,1.04-0.49,1.44-0.92C735.61,656.93,735.92,656,735.83,655.08z M697.87,741.71
				c-0.03-0.33-3.02-33.14,15.24-50.17c0.01-0.01,0.02-0.02,0.03-0.03c13.89-13.26,21.52-17.72,21.8-17.88l16.15-8.64
				c0.39-0.21,0.74-0.5,1.02-0.85c0.86-1.07,3.35-4.03,5.12-5.53c7.52-3.38,9.88-15,10.1-18c0.2-2.74-0.71-4.95-1.65-6.45
				c0.29-0.35,0.51-0.76,0.65-1.19c1.68-5.66,5.27-6.91,5.69-7.04c0.74-0.15,1.37-0.53,1.82-1.08c0.57,0.64,1.38,1.03,2.24,1.09
				c1.96,0.13,5.23,4.83,6.04,7.17c-1.51,2.64-2,5.56-1.44,8.7c0.81,4.54,3.82,9.38,8.95,14.37c2.32,2.26,4.55,4.03,5.9,5.05
				l0.19,2.33c0.11,1.32,1,2.45,2.25,2.86c14.12,4.69,25.88,10.71,34.97,17.9c0.23,1.6,1.6,2.83,3.27,2.83c0.03,0,0.06,0,0.1,0
				c3.57,3.18,6.66,6.56,9.24,10.12c0,0,0.01,0.01,0.01,0.01c0.01,0.01,0.01,0.02,0.02,0.02c0.43,0.59,0.83,1.18,1.23,1.78
				c5.24,8.13,7,18.27,7.58,23.44c-1.68,0.16-2.99,1.57-2.99,3.29v16.23l-6.39,0.69l-51.03,0.85l-59.72,1.07l-33.86,0.43l-3.88-0.38
				C697.46,744.02,697.99,742.88,697.87,741.71z M851.37,694.04c0.13-0.42,0.38-1,0.67-1.6c8.23-0.45,42.15-2.42,61.26-5.34
				c18.24-2.83,32.73-4.81,37.94-5.5l0.78,1.22c0.68,1.07,1.92,1.66,3.18,1.51l9.26-1.09l14.31-1.52v40.81l-52.19,0.46
				c-0.18,0-0.35,0-0.53,0l-37.69-0.48c-0.01,0-0.03,0-0.04,0h-26.94c-0.1-4.43-1.06-12.33-5.75-21.44
				c-1.05-2.03-2.22-4.02-3.53-5.95C851.87,694.76,851.62,694.4,851.37,694.04z M693.53,752.27l0.1-1.2l6.3,0.61
				c0.12,0.01,0.24,0.02,0.36,0.02l34.06-0.43l59.73-1.07l51.17-0.86c0.1,0,0.2-0.01,0.3-0.02l10.17-1.1l0.37,7.66l-13.26,1.38
				l-45.46,1.31L771.49,759c-0.03,0-0.07,0-0.1,0l-36.92,1.71l-34.31-1.04l-6.89-4.3L693.53,752.27z M863.1,764.27l-1.98,2.38
				l-125.7,6.91c-0.2-0.04-0.4-0.06-0.61-0.06c-0.34,0-0.66,0.05-0.97,0.14l-4.86,0.27h-37.46h0h-2.2L679,763.69l0.36-1.78
				l9.73-1.36l8.34,5.2c0.5,0.31,1.07,0.48,1.65,0.5l35.33,1.07c0.03,0,0.07,0,0.1,0c0.05,0,0.1,0,0.15,0l36.99-1.71l25.86-0.43
				c0.01,0,0.03,0,0.04,0l45.61-1.31c0.08,0,0.17-0.01,0.25-0.02l16.14-1.68c0.93-0.1,1.74-0.58,2.28-1.28l1.27,0.54V764.27z
				 M991.65,617.52c-0.05,0-0.09,0.01-0.14,0.02c-1.61,0.22-2.83,1.57-2.87,3.2l-1.03,41.48l-2.22,0.44
				c-0.19,0.04-0.38,0.09-0.57,0.17l-9.31,3.64c-0.72,0.28-1.33,0.81-1.7,1.5l-0.61,1.11c-0.63,1.15-0.52,2.56,0.28,3.6l1.35,1.75
				c0.02,0.37,0.11,0.72,0.25,1.05l-11.34,1.2c-0.01,0-0.02,0-0.04,0l-7.21,0.85l-0.8-1.25c-0.69-1.08-1.94-1.67-3.21-1.5
				c-0.17,0.02-17.22,2.23-40.18,5.8c-21.41,3.27-62.01,5.35-62.42,5.37c-1.08,0.05-2.06,0.63-2.63,1.55
				c-0.16,0.26-0.32,0.52-0.47,0.78c-2.19-2.47-4.62-4.83-7.26-7.1V452.11l32.83,28.48c-0.16,0.38-0.24,0.8-0.24,1.22l-0.4,51.99
				c0,0.03,0,0.05,0,0.08l0.35,20.03l-9.35,1.13c-1.27,0.15-2.33,1.02-2.74,2.23l-5.01,14.93c-0.36,1.07-0.15,2.26,0.57,3.14
				c0.63,0.78,1.58,1.22,2.57,1.22c0.13,0,0.26-0.01,0.39-0.02l58.99-6.96c1.66-0.2,2.92-1.61,2.92-3.28v-20.25l14.4-75.71
				l16.5,53.26c0.01,0.02,0.01,0.03,0.02,0.05c0.01,0.04,0.03,0.08,0.04,0.12c0.02,0.05,0.04,0.11,0.07,0.16
				c0.02,0.03,0.03,0.07,0.05,0.1c0.04,0.08,0.08,0.17,0.13,0.25c0,0,0.01,0.01,0.01,0.01c0.05,0.08,0.1,0.16,0.15,0.23
				c0.02,0.02,0.03,0.04,0.05,0.06c0.04,0.06,0.09,0.11,0.13,0.17c0.02,0.02,0.04,0.04,0.06,0.06c0.05,0.06,0.11,0.12,0.16,0.17
				c0.01,0.01,0.03,0.03,0.04,0.04c0.07,0.06,0.14,0.13,0.22,0.18c0.02,0.02,0.05,0.04,0.07,0.05c0.05,0.04,0.11,0.08,0.16,0.11
				c0.03,0.02,0.06,0.04,0.1,0.06c0.05,0.03,0.11,0.06,0.16,0.09c0.03,0.02,0.06,0.03,0.09,0.05c0.08,0.04,0.17,0.08,0.25,0.11
				c0.03,0.01,0.06,0.02,0.09,0.03c0.06,0.02,0.13,0.04,0.19,0.06c0.03,0.01,0.07,0.02,0.1,0.03c0.07,0.02,0.14,0.03,0.21,0.05
				c0.03,0,0.05,0.01,0.08,0.02c0.09,0.02,0.19,0.03,0.28,0.03c0.01,0,0.01,0,0.02,0c0,0,0.01,0,0.01,0c0.06,0,0.13,0.01,0.19,0.01
				c0.11,0,0.21,0,0.32-0.01c0.03,0,0.06-0.01,0.1-0.01c0.06-0.01,0.13-0.02,0.19-0.03c0.04-0.01,0.07-0.01,0.11-0.02
				c0.06-0.01,0.12-0.03,0.17-0.04c0.03-0.01,0.07-0.02,0.1-0.03c0.08-0.03,0.17-0.05,0.25-0.09c0.03-0.01,0.06-0.03,0.09-0.04
				c0.06-0.02,0.11-0.05,0.17-0.08c0.03-0.02,0.07-0.03,0.1-0.05c0.05-0.03,0.1-0.06,0.15-0.09c0.03-0.02,0.06-0.04,0.09-0.06
				c0.06-0.04,0.11-0.08,0.17-0.12c0.02-0.01,0.04-0.03,0.06-0.04c0.07-0.06,0.14-0.12,0.21-0.18c0.01-0.01,0.03-0.03,0.04-0.04
				c0.05-0.05,0.11-0.1,0.16-0.16c0.02-0.02,0.04-0.05,0.06-0.07c0.04-0.05,0.08-0.09,0.12-0.14c0.02-0.03,0.04-0.06,0.07-0.09
				c0.03-0.05,0.06-0.09,0.1-0.14c0.02-0.03,0.04-0.06,0.06-0.1c0.03-0.06,0.07-0.12,0.1-0.18c0.01-0.03,0.03-0.05,0.04-0.08
				l41.52-85.66l45.8,80c0.62,1.09,1.81,1.73,3.06,1.66c1.25-0.07,2.36-0.85,2.85-2l33.2-77.92l26.92,70.07
				c0.19,0.5,0.5,0.93,0.88,1.27c-1.65,5.37-2.4,9.23-2.45,9.47c-0.34,1.79,0.83,3.53,2.62,3.87c0.21,0.04,0.42,0.06,0.63,0.06
				c1.55,0,2.94-1.1,3.24-2.68c0.02-0.09,1.72-8.82,5.63-18.11c3.44-8.18,9.33-18.51,17.84-21.28c5.38-1.75,15.11-3.14,26.14-4.24
				c-6.19,2.28-12.4,5.57-18.61,9.88c-14.61,10.14-25.74,26.97-32.18,48.69c-3.51,11.83-4.74,21.99-5.17,26.87l-10.34,0.4v-7.58
				c0-1.69-1.27-3.11-2.95-3.29l-50.07-5.42c-0.24-0.03-0.48-0.03-0.72,0l-91.2,10.07c-0.39,0.04-0.77,0.15-1.12,0.33l-38.26,19.13
				c-1.15,0.58-1.87,1.77-1.83,3.06l0.19,6.04l-5.02,3.61c-1.37,0.99-1.78,2.86-0.94,4.33c0.61,1.06,1.72,1.66,2.87,1.66
				c0.45,0,0.9-0.09,1.34-0.28l39.53-17.49l96.92-10.15l-30.64,71.25l-9.41,2.12l-0.34-2.62l0.69-2.22c0.2-0.64,0.2-1.32,0-1.96
				l-1.35-4.39l-0.88-11.67c-0.12-1.64-1.43-2.93-3.07-3.05c-0.12-0.01-0.24-0.01-0.36-0.01l-1.02-9.82l0.27-0.06
				c1.49-0.35,2.55-1.68,2.55-3.22v-2.19c0-0.64-0.18-1.23-0.49-1.73c0.31-0.51,0.49-1.1,0.49-1.73v-3.1c0-0.98-0.44-1.91-1.19-2.54
				c-0.76-0.63-1.75-0.89-2.72-0.71l-4.92,0.91c-0.27,0.05-0.53,0.13-0.78,0.25l-2.37,1.09c-1.09,0.5-1.82,1.55-1.91,2.75
				l-0.18,2.37c-0.06,0.74,0.14,1.47,0.54,2.08c-0.33,0.94-0.22,2,0.33,2.86l1.6,2.54L991.65,617.52z M1079.57,565.15l-28.19-3.68
				c-0.26-0.03-0.52-0.04-0.77-0.01l-100.98,10.58c-0.34,0.04-0.68,0.13-0.99,0.26l-29.01,12.84l-0.08-2.54l35.84-17.92l90.25-9.97
				l46.76,5.06v4.87l-7.64,0.3L1079.57,565.15z M1055.25,659.87c-0.36-0.01-0.71,0.05-1.05,0.15l-11.59,3.67l-41.96,4.58l-7.07-1.45
				c0.36-0.52,0.57-1.14,0.59-1.8L995,631.3c1.33-0.36,2.33-1.52,2.44-2.94l0.11-1.38l0.16,0.57c0.32,1.14,1.22,1.99,2.31,2.28
				l0.12,1.62c0.02,0.25,0.06,0.49,0.14,0.72l1.16,3.76l-0.61,1.94c-0.14,0.46-0.19,0.94-0.12,1.42l0.91,6.93
				c0.12,0.92,0.62,1.75,1.39,2.28c0.76,0.53,1.71,0.72,2.62,0.51l14.59-3.28c1.03-0.23,1.89-0.95,2.31-1.92l30.54-71.02l26.48-1.03
				c0,0,0,0,0,0l9.54-0.37l43.63-1.7l27.39,67.14c0.08,0.2,0.19,0.4,0.31,0.59l1.46,2.19c0.55,0.83,1.46,1.37,2.45,1.46l2.01,0.18
				c0.95,0.09,1.89-0.24,2.58-0.9c0.69-0.66,1.06-1.58,1.02-2.53l-0.95-22.24l0.54-0.03c0.89-0.04,1.69-0.43,2.26-1.04
				c0.43,0.2,0.91,0.32,1.42,0.32h0.45l1.57,9.97c0.2,1.29,1.14,2.33,2.4,2.68l4.01,1.09c0.99,0.27,2.06,0.06,2.88-0.56
				c0.42-0.32,0.75-0.74,0.98-1.2l0.52,0.47l1.48,34.56L1055.25,659.87z M1339.95,676.06c-0.35-0.24-0.75-0.42-1.17-0.51l-17.44-3.8
				c-0.21-0.05-0.42-0.07-0.64-0.08l-66.78-1.36c-0.65-1.03-1.82-1.64-3.07-1.54l-35.59,2.89l-22.25-0.87
				c0.31-0.11,0.6-0.27,0.86-0.47c1.08-0.82,1.56-2.21,1.2-3.52l-0.91-3.31l-1.62-37.92c-0.04-0.89-0.43-1.72-1.09-2.32l-0.9-0.81
				l-0.25-2.04l37.79-55.74c0.28-0.41,0.46-0.88,0.53-1.36l0.13-0.88c0.34,0.08,0.7,0.11,1.06,0.08l35.97-3.25
				c-0.36,3.47-0.81,8.43-0.81,11.85c0,4.38-3.53,37.32-4.89,49.64c-0.2,1.82,1.11,3.45,2.92,3.65c0.12,0.01,0.25,0.02,0.37,0.02
				c1.66,0,3.1-1.25,3.28-2.94c0.2-1.82,4.93-44.72,4.93-50.36c0-1.74,0.13-3.98,0.31-6.2c8.41,24.36,39.13,81.84,40.55,84.5
				c0.54,1.02,1.58,1.68,2.73,1.74c1.15,0.07,2.25-0.48,2.91-1.43l3.88-5.64c0.36-0.53,0.57-1.15,0.58-1.79l0.06-2.45l0.62,4.31
				v10.25c0,1.55,1.07,2.88,2.58,3.23l10.6,2.39c0.98,0.22,2.01-0.02,2.79-0.64c0.79-0.63,1.24-1.58,1.24-2.58v-7.98l1.2-1.2
				c0.62-0.62,0.97-1.46,0.97-2.34v-21.28c1.15-0.52,1.94-1.68,1.94-3.01v-5.87l1.41-1.06c0.02-0.01,0.03-0.03,0.05-0.04
				c0.04-0.03,0.07-0.06,0.11-0.09c0.04-0.04,0.08-0.07,0.12-0.11c0.03-0.03,0.06-0.06,0.09-0.09c0.04-0.04,0.08-0.08,0.12-0.12
				c0.03-0.03,0.06-0.07,0.09-0.1c0.03-0.04,0.07-0.09,0.1-0.13c0.03-0.04,0.06-0.08,0.08-0.11c0.01-0.01,0.02-0.02,0.02-0.03
				c0.32,0.5,0.71,1.07,1.19,1.71l0.54,3.09c0.28,1.56,1.62,2.71,3.21,2.73c1.58,0.03,2.97-1.09,3.29-2.64
				c0.23-1.11,0.6-2.4,0.88-3.12c0.2-0.1,0.4-0.2,0.59-0.32c0.02,0.31,0.05,0.64,0.12,0.98c0.31,1.67,0.31,1.67-0.31,2.42
				c-2.25,2.73-1.31,6.09-0.81,7.9c0.06,0.2,0.13,0.46,0.16,0.61c-0.05,1.16-0.48,6.58-0.9,11.44c-0.09,1,0.29,1.94,0.95,2.61
				c-0.65,1.75-1.53,4.15-1.53,6.91c0,2.58,1.28,4.22,2.04,5.19c0.11,0.14,0.24,0.31,0.33,0.44c-0.36,2.65-1.69,13.97-1.69,22.08
				c0,3,0.23,5.34,0.54,7.13h-6.21L1339.95,676.06z M1425.9,540.24c0.88,27.58,3.21,77.3,3.31,79.6v171.61l-3.25-4.71l-4.3-7.26
				V608.61c0-0.49-0.11-0.95-0.3-1.37c-0.18-11.98-0.45-26.64-0.89-42.96c-0.01-21.85-8.71-36.3-16-44.57
				c-7.95-9.02-15.91-12.82-16.25-12.97c-0.87-0.41-1.87-0.42-2.75-0.03c-0.35,0.15-8.61,3.88-17.13,11.84
				c-4.11,3.84-7.57,8.02-10.36,12.46c1.21-6.78,2.91-10.86,4.56-13.31c10.61-14.53,23.39-21.29,27.56-23.21
				C1396.74,498.48,1425.16,516.97,1425.9,540.24z M1357.16,513.84c-0.02,0.03-0.04,0.06-0.06,0.09c-6.19,9.11-8.5,28.13-6.86,56.52
				c0.12,2.12,0.26,4.22,0.42,6.27c0.17,8.91-0.28,11.67-0.45,12.38c-0.5,0.86-0.62,1.93-0.21,2.93c0.42,1.03,1.3,1.73,2.31,1.97
				c0.75,6.54,1.47,11.61,1.85,14.13c-0.39,0.36-0.83,0.73-1.09,0.89c-0.3,0.07-0.6,0.18-0.91,0.35c-0.09-0.15-0.16-0.27-0.22-0.38
				c-0.26-1.8-1.58-4.06-3.12-5.23c-0.42-0.31-0.86-0.55-1.31-0.73l0.34-14.61c0-0.07,0-0.15,0-0.22
				c-1.28-29.35-4.22-49.87-9.52-66.51c-5.74-18-14.22-30.87-25.78-39.09l68.54,9.17C1374.63,495.67,1365.36,502.61,1357.16,513.84z
				 M1517.7,508.69l-0.52-0.52c0.82-0.49,1.41-1.33,1.56-2.31c0.21-1.29-0.37-2.58-1.46-3.29l-7.04-4.59
				c-0.73-0.48-1.63-0.65-2.48-0.47l-6.58,1.37l-17.09-4.46l0.11-0.24c0.45-0.95,0.43-2.06-0.07-2.98c-0.5-0.93-1.4-1.56-2.44-1.71
				l-13.77-1.98c-0.74-0.11-1.5,0.04-2.15,0.42l-2.5,1.47l-35.4-1.93c-1.08-0.06-2.12,0.42-2.79,1.27l-1.59,2.04l-119.77-16.02
				c-0.06-0.01-0.11-0.01-0.17-0.02l-31.25-2.55l2.56-5.82c0.73-1.66-0.01-3.59-1.66-4.34l-3.09-1.4l-0.12-6.18l165.05,23.42
				c0.07,0.01,0.14,0.02,0.21,0.02l29.88,2.28l17.63,3.85l17.8,5.21c1,0.29,2.08,0.1,2.91-0.53c0.83-0.62,1.32-1.6,1.32-2.65v-8.59
				c0-1.03-0.48-1.98-1.26-2.6l2.61-6.33c0.12-0.28,0.19-0.58,0.23-0.88l0.34-2.9l0.23,2.01c0.02,0.14,0.04,0.28,0.07,0.42l2.09,8.5
				l-0.49,0.63c-0.45,0.59-0.69,1.31-0.69,2.05l0.15,14.56c0.01,1.49,1.02,2.79,2.47,3.16l2.77,0.73c0.92,0.24,1.9,0.08,2.69-0.46
				c0.79-0.53,1.31-1.38,1.43-2.33l1.6-12.81c0.04-0.34,0.03-0.68-0.03-1.02l1.63-0.41c0.65-0.16,1.21-0.51,1.64-0.98l0.94,6.18
				v25.22c0,0.89,0.36,1.75,1,2.37l2.29,2.23l0.02,0.04l-1.32,0.01L1517.7,508.69z M1569.58,753.43l-31.76-34.29v-12.67l58.83,1.42
				l41.59,36.28L1569.58,753.43z M1642.5,716.28l-27.74-1.37l-14.66-12.79c-0.58-0.51-1.32-0.8-2.09-0.81l-60.19-1.45v-17.07
				l62.02,2.42c1.82,0.06,3.36-1.35,3.43-3.17l1.88-45.11l0.66-4.48l47.52-7.64l2.45,91.2L1642.5,716.28z M1659.98,626.08l18,5.92
				l1.51,28.91c0,0.03,0,0.06,0.01,0.08l3.88,49.68v4.76l-20.99,0.43L1659.98,626.08z"/>
		</g>
	</g>
	<g>
		<path class="st2" d="M110.42,559.58v51.13H93.38v-119.3h51.13v119.3h-17.04v-51.13H110.42z M110.42,508.45v34.09h17.04v-34.09
			H110.42z"/>
	</g>
	<g>
		<path class="st2" d="M189.23,559.58v51.13h-17.04v-119.3h51.13v119.3h-17.04v-51.13H189.23z M189.23,508.45v34.09h17.04v-34.09
			H189.23z"/>
	</g>
	<g>
		<path class="st2" d="M302.13,525.5h-17.04v-17.04h-17.04v85.22h17.04v-17.04h17.04v34.09H251v-119.3h51.13V525.5z"/>
	</g>
	<g>
		<path class="st2" d="M110.42,702.42v51.13H93.38v-119.3h17.04v51.13h17.04v-51.13h17.04v119.3h-17.04v-51.13H110.42z"/>
	</g>
	<g>
		<path class="st2" d="M223.32,634.25v17.04h-34.09v34.09h34.09v17.04h-34.09v34.09h34.09v17.04h-51.13v-119.3H223.32z"/>
	</g>
	<g>
		<path class="st2" d="M268.04,651.29v102.26H251v-119.3h51.13v119.3h-17.04V651.29H268.04z"/>
	</g>
	<g>
		<path class="st3" d="M370.18,591.25V488.99h17.04v93.74l8.52,8.52l8.52-8.52v-93.74h17.04v102.26l-17.04,17.04l-8.52,8.52
			l-8.52-8.52L370.18,591.25z"/>
	</g>
	<g>
		<path class="st3" d="M466.03,557.17v51.13h-17.04v-119.3h51.13v119.3h-17.04v-51.13H466.03z M466.03,506.04v34.09h17.04v-34.09
			H466.03z"/>
	</g>
	<g>
		<path class="st3" d="M527.79,608.3v-119.3h17.04v102.26h34.09v17.04H527.79z"/>
	</g>
	<g>
		<path class="st3" d="M370.18,751.13v-119.3h17.04v102.26h34.09v17.04H370.18z"/>
	</g>
	<g>
		<path class="st3" d="M500.11,631.83v17.04h-34.09v34.09h34.09V700h-34.09v34.09h34.09v17.04h-51.13v-119.3H500.11z"/>
	</g>
	<g>
		<path class="st3" d="M544.84,700l-17.04-17.04v-51.13h17.04v42.61l8.52,8.52l8.52-8.52v-42.61h17.04v51.13L561.88,700v51.13
			h-17.04V700z"/>
	</g>
	<g>
		<rect x="328.46" y="482.92" class="st3" width="10" height="273.7"/>
	</g>
</g>
</svg>
